<svg width="101" height="60" viewBox="0 0 101 60" fill="none" xmlns="http://www.w3.org/2000/svg">
<path fill-rule="evenodd" clip-rule="evenodd" d="M83.6263 59.1904V46.4808H78.3287V59.1904H83.6263ZM55.58 53.9131V46.6731H50.4451V52.2075C50.4451 53.8161 50.3802 54.2672 50.2828 54.6855C49.9252 55.8442 48.6901 56.3578 47.423 56.3578C45.6685 56.3578 44.8559 55.6824 44.5307 54.6207C44.4334 54.2677 44.4009 53.8815 44.3684 53.4953C44.336 53.0769 44.3684 52.6259 44.3684 52.1444V46.6736H39.1687V53.9458C39.1687 55.5876 39.7216 56.81 40.6311 57.6461C42.1908 59.1589 44.8234 59.6093 47.2607 59.6093C50.2179 59.6093 52.4929 59.191 54.1176 57.6145C54.9632 56.8094 55.58 55.7477 55.58 53.9131ZM30.3615 53.0121C30.104 52.9678 29.8431 52.9465 29.5819 52.9484H23.7324C23.4397 52.9484 23.1145 52.9805 22.9522 53.0121C23.0496 52.9152 23.2449 52.7229 23.4397 52.4652L26.0717 48.1531C26.4293 47.5746 26.5917 47.1884 26.6566 47.0277C26.7215 47.1884 26.8838 47.5746 27.2414 48.1864L29.9389 52.5306C30.0693 52.7229 30.2641 52.9152 30.3615 53.0121ZM40.1761 59.1904L28.4766 41.8157H21.9124L23.6344 43.8427C23.6669 43.8748 23.7324 43.9064 23.7967 43.9396C23.7318 43.9718 23.6669 44.0034 23.6344 44.0355L13.4303 59.1904H19.3447L20.9375 56.5839C21.0024 56.4553 21.0349 56.3262 21.0349 56.2625C21.0998 56.2625 21.2626 56.3263 21.4249 56.3263H31.9867C32.149 56.3263 32.2788 56.2941 32.3438 56.2625C32.3378 56.353 32.3605 56.4431 32.4087 56.5202L34.0664 59.1904H40.1761ZM76.8993 52.6591C76.8993 51.2428 76.3139 49.6016 74.4945 47.317L70.1068 41.8152H63.9971L67.4742 45.6762C68.0596 46.3201 68.8068 46.8986 68.8068 46.8986C67.9622 46.4154 66.89 46.2231 66.0449 46.2231C64.0301 46.2231 61.9818 46.6415 60.1629 47.6394C58.2126 48.7 56.9125 50.4704 56.9125 52.8198C56.9125 54.6212 57.7251 56.0054 58.7649 57.0671C61.1054 59.3833 65.3616 59.6088 66.9219 59.6088C69.2288 59.6088 72.8363 59.094 74.8846 57.2599C76.0873 56.1656 76.8993 54.6539 76.8993 52.6591ZM71.8294 52.8198C71.8294 54.1392 70.9514 55.136 69.8466 55.6829C68.9366 56.1661 67.8638 56.2947 66.9219 56.2947C65.98 56.2947 64.8747 56.1013 63.9647 55.6508C62.8599 55.1039 62.0143 54.0422 62.0143 52.8836C62.0143 51.5005 63.0866 50.4056 64.3547 49.8587C65.1349 49.5057 66.0773 49.3766 66.8239 49.3766C67.5397 49.3766 68.5795 49.4725 69.3922 49.7949C70.8551 50.4056 71.8294 51.5642 71.8294 52.8198ZM81.9434 0.391183C78.1383 0.385101 74.4435 1.6561 71.4619 3.99675C68.4804 1.65594 64.7856 0.384929 60.9805 0.391183C57.1756 0.385353 53.4811 1.65633 50.4996 3.99675C47.5184 1.65583 43.8237 0.384794 40.0187 0.391183C36.2139 0.385353 32.5193 1.65633 29.5379 3.99675C26.5564 1.65625 22.8618 0.385267 19.057 0.391183C9.71991 0.391183 2.15332 7.88231 2.15332 17.1275C2.15332 26.3715 9.71936 33.8638 19.057 33.8638C22.8618 33.8695 26.5564 32.5986 29.5379 30.2582C32.5193 32.5987 36.2139 33.8697 40.0187 33.8638C43.8237 33.8701 47.5184 32.599 50.4996 30.2582C53.4811 32.5986 57.1756 33.8696 60.9805 33.8638C64.7856 33.87 68.4804 32.599 71.4619 30.2582C74.4434 32.599 78.1383 33.87 81.9434 33.8638C91.2804 33.8638 98.8465 26.3721 98.8465 17.1275C98.8465 7.88286 91.2804 0.391183 81.9434 0.391183ZM26.7721 27.5242C24.6182 29.0799 21.9272 30.0294 19.057 30.0294C11.854 30.0294 6.02547 24.2591 6.02547 17.1275C6.02547 9.99587 11.854 4.22499 19.057 4.22499C21.9272 4.22499 24.6165 5.175 26.7721 6.7313C24.3971 9.6855 23.1077 13.3517 23.1156 17.1275C23.1174 20.9018 24.4058 24.5651 26.7721 27.5242ZM29.5384 24.7935C27.8772 22.5765 26.9829 19.8879 26.9883 17.1275C26.9813 14.3668 27.8758 11.6778 29.5384 9.46148C31.2007 11.6779 32.0951 14.3668 32.0885 17.1275C32.0937 19.8879 31.1994 22.5764 29.5384 24.7935ZM47.7344 27.5242C45.4965 29.1554 42.7889 30.0323 40.0099 30.0256C37.2368 30.0312 34.5352 29.1543 32.3036 27.5242C34.6702 24.5654 35.9586 20.9022 35.9601 17.128C35.968 13.3522 34.6786 9.68604 32.3036 6.73184C34.535 5.10129 37.2366 4.22416 40.0099 4.2299C42.9011 4.2299 45.5722 5.15594 47.7344 6.73184C45.3594 9.68604 44.07 13.3522 44.0779 17.128C44.0796 20.9022 45.3679 24.5654 47.7344 27.5242ZM50.4996 24.7935C48.8384 22.5765 47.9441 19.8879 47.9495 17.1275C47.9428 14.3668 48.8373 11.6779 50.4996 9.46148C52.1623 11.6777 53.057 14.3667 53.0502 17.1275C53.0555 19.888 52.161 22.5765 50.4996 24.7935ZM68.6962 27.5242C66.534 29.1006 63.8629 30.0256 60.9722 30.0256C58.0816 30.0256 55.4276 29.099 53.2654 27.5242C55.6322 24.5655 56.9206 20.9023 56.9218 17.128C56.9298 13.3522 55.6403 9.68604 53.2654 6.73184C55.4276 5.15648 58.0816 4.2299 60.9722 4.2299C63.8629 4.2299 66.534 5.15594 68.6962 6.73184C66.3215 9.68619 65.0321 13.3523 65.0397 17.128C65.0416 20.9022 66.33 24.5652 68.6962 27.5242ZM71.4625 24.7935C69.8013 22.5765 68.907 19.8879 68.9124 17.1275C68.9052 14.3667 69.7997 11.6777 71.4625 9.46148C73.1247 11.6779 74.0192 14.3668 74.0125 17.1275C74.0175 19.8879 73.1233 22.5763 71.4625 24.7935ZM81.9434 30.0294C79.072 30.0294 76.3816 29.0799 74.2282 27.5242C76.5946 24.5653 77.8829 20.9022 77.8847 17.128C77.8923 13.3523 76.6029 9.68619 74.2282 6.73184C76.3838 5.17609 79.0725 4.22554 81.9434 4.22554C89.1452 4.22554 94.9749 9.99641 94.9749 17.128C94.9749 24.2585 89.1452 30.0294 81.9434 30.0294Z" fill="#B8B8B8"/>
</svg>
