<svg width="60" height="60" viewBox="0 0 60 60" fill="none" xmlns="http://www.w3.org/2000/svg">
<g clip-path="url(#clip0_46_4)">
<path d="M29.9999 60C38.0132 60 45.5466 56.8793 51.2131 51.2131C56.8793 45.5468 60 38.0132 60 29.9999C60 21.9868 56.8793 14.4532 51.2131 8.78691C45.5468 3.12058 38.0132 0 29.9999 0C13.4579 0 0 13.4579 0 29.9999C0 38.0132 3.12058 45.5468 8.78691 51.2131C14.4532 56.8793 21.9868 60 29.9999 60Z" fill="#B8B8B8"/>
<path d="M1.03809 29.9999C1.03809 22.2641 4.05071 14.9911 9.52096 9.52086C14.9912 4.05049 22.2641 1.03799 30 1.03799C37.736 1.03799 45.009 4.05049 50.4791 9.52086C55.9494 14.9911 58.962 22.264 58.962 29.9999C58.962 45.9697 45.9697 58.962 30 58.962C22.2641 58.962 14.9912 55.9494 9.52096 50.4791C4.05071 45.0088 1.03809 37.7359 1.03809 29.9999Z" fill="#B8B8B8"/>
<path d="M30 2.2316C14.6642 2.2316 2.23169 14.6641 2.23169 29.9999C2.23169 45.3358 14.6642 57.7684 30 57.7684C45.3359 57.7684 57.7684 45.3358 57.7684 29.9999C57.7684 14.6641 45.3359 2.2316 30 2.2316Z" fill="#B8B8B8"/>
<path d="M30 47.7374C20.2039 47.7374 12.2625 39.7961 12.2625 29.9999C12.2625 20.2039 20.2039 12.2624 30 12.2624C39.796 12.2624 47.7375 20.2039 47.7375 29.9999C47.7375 39.7961 39.7961 47.7374 30 47.7374Z" fill="white"/>
<path d="M13.4036 29.9999H29.9999V13.4036C20.8341 13.4036 13.4036 20.8343 13.4036 29.9999ZM29.9999 29.9999V46.5964C39.1657 46.5964 46.5963 39.1659 46.5963 29.9999H29.9999Z" fill="#B8B8B8"/>
<path d="M16.965 13.0763C16.3771 12.5048 15.4682 12.3326 14.615 12.8616C14.7779 12.4392 14.7114 12.0082 14.6249 11.7704C14.2573 11.1001 14.129 11.0162 13.826 10.762C12.8453 9.93912 11.8132 10.6417 11.0751 11.5214L7.50854 15.7717L13.115 20.4762L16.8762 15.994C17.7356 14.9698 17.8684 13.9545 16.965 13.0763ZM30.929 11.0567L32.8544 5.95326V11.0567H34.3177V3.74766H32.1191L30.1193 8.98081H30.14L28.1402 3.74766H25.9417V11.0567H27.405V5.95326L29.3305 11.0567H30.929ZM50.6031 14.0974L47.848 17.998L52.1191 15.9703L53.25 17.3668L46.5274 20.6256L45.2002 18.9734L47.8444 15.107L47.8288 15.0876L43.4971 16.8702L42.1569 15.2285L46.7423 9.33033L47.8732 10.7269L45.0018 14.4831L49.3899 12.5992L50.6031 14.0974Z" fill="white"/>
<path d="M11.8543 12.5733C12.1025 12.2775 12.6634 12.2896 13.0241 12.5922C13.4207 12.925 13.4217 13.3968 13.1553 13.7141L11.0373 16.2382L9.71216 15.1262L11.8543 12.5733ZM15.6227 15.5509L13.3896 18.2121L11.9894 17.0371L14.2405 14.3543C14.4947 14.0513 15.0615 13.9631 15.4437 14.284C15.8764 14.6469 15.9193 15.1975 15.6227 15.5509Z" fill="#B8B8B8"/>
</g>
<defs>
<clipPath id="clip0_46_4">
<rect width="60" height="60" fill="white"/>
</clipPath>
</defs>
</svg>
