<svg width="38" height="60" viewBox="0 0 38 60" fill="none" xmlns="http://www.w3.org/2000/svg">
<g clip-path="url(#clip0_46_116)">
<path d="M10.584 56.6013V54.1743C10.6256 52.9902 8.62572 53.0429 8.62572 53.0429H7.70245C7.70245 53.0429 5.70255 52.99 5.74379 54.1743V58.1845C5.72556 58.7089 6.10771 58.9835 6.53899 59.1269C6.55619 59.1338 6.63453 59.1629 6.79058 59.196L6.81275 59.2008L6.81835 59.202C6.94622 59.2291 7.07139 59.2472 7.186 59.2591C7.44049 59.2894 7.77747 59.3127 8.21786 59.3127C8.21786 59.3127 8.75525 59.3227 9.25201 59.2811C9.44963 59.2781 9.64588 59.2476 9.83519 59.1906C9.83519 59.1906 9.87249 59.1831 9.95373 59.1477C10.2913 59.0112 10.603 58.7374 10.5835 58.1843V57.217H9.0058V57.9462C9.0058 58.1416 8.84788 58.3002 8.65328 58.3002H7.64131C7.44671 58.3002 7.33895 58.1922 7.33895 57.9968V56.6013H10.584ZM7.36527 54.2061C7.36527 54.0107 7.52318 53.8521 7.71758 53.8521H8.58448C8.63076 53.8521 8.67659 53.8613 8.71935 53.8791C8.76211 53.8969 8.80096 53.923 8.83367 53.9558C8.86639 53.9887 8.89234 54.0277 8.91003 54.0707C8.92773 54.1136 8.93682 54.1596 8.93679 54.2061V55.9591H7.36527V54.2061ZM15.4647 53.0116C15.4647 53.0116 16.5097 52.9771 16.5097 53.9916V56.5753H14.9638V54.2429C14.9638 54.2429 14.1956 54.9538 13.6601 55.951V58.5089H12.0193V53.9655H11.4322V53.133H13.6514V54.5898C13.6514 54.5898 14.4975 53.0116 15.4647 53.0116Z" fill="#B8B8B8"/>
<path d="M11.4407 58.2833H14.1995V59.1937H11.4407V58.2833ZM21.2027 53.0116C21.2027 53.0116 22.2478 52.9771 22.2478 53.9916V56.5753H20.702V54.2429C20.702 54.2429 19.9337 54.9538 19.3982 55.951V58.5089H17.7575V53.9655H17.1703V53.133H19.3895V54.5898C19.3895 54.5898 20.2357 53.0116 21.2027 53.0116Z" fill="#B8B8B8"/>
<path d="M17.1787 58.2833H19.9375V59.1937H17.1787V58.2833ZM32.9895 53.0116C32.9895 53.0116 34.0346 52.9771 34.0346 53.9916V56.5753H32.4888V54.2429C32.4888 54.2429 31.7206 54.9538 31.185 55.951V58.5089H29.5441V53.9655H28.9572V53.133H31.1761V54.5898C31.1761 54.5898 32.0225 53.0116 32.9895 53.0116Z" fill="#B8B8B8"/>
<path d="M28.9657 58.2833H31.7245V59.1937H28.9657V58.2833ZM37.1 58.2833V53.133H34.8527V53.9653H35.4615V58.2833H34.8462V59.1937H37.7087V58.2833H37.1ZM35.4605 50.7763H37.099V51.8761H35.4605V50.7763ZM34.5673 51.8711V50.7779H0.24903V51.8711H1.17209V58.2833H0.00634766V59.1937H4.40716V58.2833H2.89035V55.4222H3.80263V56.2635H4.81004V53.6969H3.80263V54.4635H2.89035V51.8711H34.5673Z" fill="#B8B8B8"/>
<path d="M22.9863 57.937C22.9863 57.937 22.9243 59.1995 24.5362 59.1958H26.1509L26.8588 59.1937H28.357V58.2833H27.745V54.2127C27.745 54.2127 27.7709 53.2857 26.8545 53.1219C26.8545 53.1219 26.3768 53.0187 25.4823 53.0258C24.7008 53.0266 24.1738 53.1219 24.1738 53.1219C23.1108 53.3248 23.1639 54.296 23.1639 54.296V55.0004L23.163 55.0125H24.6656V54.1959C24.6656 54.0005 24.8235 53.8419 25.0181 53.8419H25.8155C26.0102 53.8419 26.1681 54.0005 26.1681 54.1959V55.7668L26.1554 55.7693H24.5408C22.9291 55.7653 22.9861 57.0328 22.9861 57.0328L22.9863 57.937ZM26.1708 57.8151C26.1708 58.0105 26.1388 58.3482 25.6628 58.3482H24.9116C24.8181 58.3482 24.7284 58.3109 24.6623 58.2445C24.5962 58.1781 24.5591 58.0881 24.559 57.9942V56.8655C24.559 56.6701 24.6656 56.44 24.9698 56.44H26.155L26.1708 56.4396V57.8151ZM35.8952 19.8925C35.7933 19.4326 35.632 19.7751 35.632 19.7751C35.632 19.7751 34.6876 22.26 33.9385 22.2051C33.9385 22.2051 33.6417 22.223 33.7028 21.3746C33.7028 21.3746 33.6951 20.4539 34.5792 19.5186C34.5792 19.5186 35.5701 18.357 35.4928 17.5766C35.4928 17.5766 35.4698 17.3438 35.3759 17.3242C35.3759 17.3242 35.2884 17.2884 35.1666 17.4932C35.1666 17.4932 34.6064 18.537 33.9385 19.1731C33.9385 19.1731 33.199 19.9504 32.8881 20.0804C32.8881 20.0804 32.6817 19.6544 32.8881 18.8926C32.8881 18.8926 33.2682 17.2451 34.8225 15.9793L34.8221 15.9782C34.9224 15.8938 34.8787 15.8215 34.8787 15.8215C34.8317 15.741 34.7189 15.7972 34.7189 15.7972C34.7189 15.7972 31.7916 17.1586 31.7916 20.4013C31.7916 20.4013 31.7875 21.1417 31.9852 21.808C32.0422 21.9997 32.0629 22.152 32.1321 22.3611C32.1321 22.3611 32.214 22.5582 32.2875 22.9278C32.4208 23.6028 32.6374 24.8248 32.5943 25.6775C32.5943 25.6775 32.6469 27.1159 32.0907 28.1424C32.0907 28.1424 31.46 29.5077 29.698 30.0611C29.698 30.0611 29.0981 30.2635 28.6716 30.1093C28.6011 29.4984 28.4436 28.8545 28.1215 28.3443C28.1215 28.3443 26.8777 25.9164 23.8901 24.0956C23.8901 24.0956 20.4718 20.9022 21.3905 18.342C21.4297 18.3441 21.4682 18.3466 21.4904 18.3489C21.5252 18.3524 21.5812 18.3663 21.6151 18.3797C21.6487 18.393 21.707 18.4267 21.7447 18.4544C21.782 18.482 21.8381 18.5274 21.8694 18.5551C21.9007 18.5828 21.9662 18.631 22.0151 18.6625C22.064 18.6939 22.1743 18.7472 22.2597 18.7811L22.2725 18.7844L22.2854 18.7877C22.3745 18.8021 22.4874 18.8181 22.5363 18.8235C22.5852 18.8289 22.671 18.8391 22.7274 18.8462C22.7909 18.8549 22.8537 18.8685 22.9152 18.8868C22.9622 18.902 23.043 18.9334 23.0949 18.9567C23.1463 18.98 23.247 19.0333 23.3183 19.0753C23.3896 19.1174 23.4971 19.1825 23.5578 19.2199C23.6181 19.2576 23.7081 19.3211 23.757 19.3615C23.8059 19.4018 23.9019 19.4792 23.9707 19.5338C24.0391 19.5883 24.1325 19.6659 24.1779 19.7061C24.2233 19.7462 24.3116 19.8145 24.3738 19.8573C24.4359 19.9002 24.5062 19.947 24.5292 19.9614C24.5522 19.9757 24.5972 20.007 24.6782 20.0101C24.6782 20.0101 24.7592 20.0296 24.8222 19.9516C24.8324 19.9387 24.8359 19.9131 24.8351 19.8979C24.8343 19.8827 24.8245 19.858 24.8139 19.8426C24.803 19.8274 24.7829 19.8105 24.7686 19.8051C24.734 19.7919 24.7004 19.7762 24.6683 19.7579C24.6542 19.7498 24.6067 19.7125 24.563 19.675C24.5192 19.6376 24.4602 19.5812 24.4318 19.5498C24.403 19.5186 24.3537 19.4593 24.3217 19.4181C24.2898 19.3768 24.2444 19.3073 24.2214 19.2636C24.1984 19.2199 24.1667 19.1569 24.1518 19.1238C24.1365 19.0907 24.0958 19.0279 24.061 18.984C24.0262 18.9401 23.9688 18.8751 23.9332 18.8393C23.8975 18.8035 23.8329 18.7422 23.7891 18.7028C23.7454 18.6635 23.6706 18.6079 23.6223 18.5792C23.574 18.5505 23.4932 18.5126 23.4426 18.4947C23.3916 18.4768 23.3147 18.4519 23.271 18.4394C23.2273 18.4269 23.1699 18.4123 23.1431 18.4069C23.1164 18.4015 23.0828 18.3869 23.0687 18.3745C23.0547 18.362 23.0437 18.3399 23.0445 18.3258C23.0453 18.3116 23.0526 18.2931 23.0607 18.2852C23.0687 18.2773 23.0918 18.2662 23.1125 18.2608C23.1328 18.2554 23.1771 18.2511 23.2113 18.2511C23.2449 18.2511 23.3085 18.2533 23.3523 18.2558C23.396 18.2583 23.4664 18.271 23.5093 18.2835C23.5518 18.296 23.6244 18.3201 23.6695 18.3372C23.7147 18.3543 23.786 18.3857 23.8283 18.4071C23.87 18.4286 23.9392 18.4681 23.9821 18.4949C24.0246 18.5218 24.099 18.5701 24.1472 18.6023C24.1955 18.6346 24.2755 18.696 24.3253 18.7388C24.375 18.7817 24.4451 18.8431 24.4807 18.8753C24.5163 18.9076 24.5665 18.9507 24.5924 18.9713C24.6183 18.9919 24.6548 19.0108 24.6734 19.0135C24.6921 19.0162 24.7184 19.0125 24.7317 19.0054C24.7449 18.9983 24.7605 18.9727 24.7657 18.9486C24.7708 18.9245 24.7754 18.8828 24.7754 18.856C24.7754 18.8291 24.7725 18.7861 24.769 18.7601C24.7654 18.734 24.7499 18.6991 24.735 18.682C24.7196 18.665 24.6365 18.5919 24.5503 18.5195C24.4637 18.4471 24.3269 18.3256 24.2459 18.2496C24.1649 18.1736 24.0306 18.0594 23.9479 17.9959C23.865 17.9325 23.739 17.844 23.6677 17.7993C23.5964 17.7545 23.4965 17.7004 23.4459 17.679C23.3949 17.6576 23.3091 17.6261 23.2548 17.6091C23.2006 17.592 23.1181 17.5708 23.0719 17.5618C23.0252 17.5529 22.9376 17.5288 22.876 17.5082C22.8145 17.4876 22.7181 17.4445 22.6623 17.4122C22.6062 17.38 22.543 17.3384 22.5214 17.3196C22.4999 17.3009 22.476 17.2753 22.4679 17.2628C22.4679 17.2628 22.3821 17.1881 22.5326 17.2043C22.5564 17.2068 22.6091 17.2116 22.6491 17.2206C22.6891 17.2295 22.7641 17.2501 22.8159 17.2661C22.8673 17.2822 22.9761 17.3115 23.0571 17.3311C23.1382 17.3506 23.2636 17.3814 23.3357 17.3993C23.4078 17.4172 23.5191 17.4443 23.5833 17.4595C23.6474 17.4747 23.7537 17.5017 23.8198 17.5196C23.8859 17.5375 23.9978 17.5747 24.0691 17.6024C24.1404 17.6301 24.2444 17.6748 24.3006 17.7017C24.4791 17.7871 24.6577 17.8721 24.8365 17.9568C24.9184 17.9953 25.045 18.045 25.1182 18.0673C25.1911 18.0896 25.3047 18.1189 25.3708 18.1322C25.4369 18.1456 25.5407 18.1574 25.6023 18.1582C25.6638 18.1591 25.7606 18.1555 25.8176 18.1501C25.8746 18.1447 25.9772 18.1281 26.046 18.1127C26.1144 18.0975 26.2108 18.0711 26.2597 18.0542C26.3086 18.0373 26.3925 18.0043 26.4458 17.9809C26.499 17.9576 26.577 17.9166 26.619 17.8898C26.6607 17.863 26.7243 17.8155 26.76 17.7841C26.7956 17.7527 26.8377 17.7111 26.8538 17.6915C26.8696 17.6717 26.8878 17.6388 26.8943 17.6182C26.9003 17.5976 26.9057 17.5639 26.9057 17.5435C26.9057 17.5231 26.8955 17.4959 26.8831 17.4834C26.8706 17.4709 26.8466 17.4613 26.8296 17.4622C26.8126 17.463 26.7854 17.4711 26.7697 17.4801C26.7395 17.4978 26.7098 17.5162 26.6806 17.5354C26.6474 17.5569 26.5778 17.6001 26.5251 17.6314C26.4725 17.6626 26.3896 17.7021 26.3405 17.7192C26.2914 17.7362 26.2122 17.7604 26.1639 17.7729C26.1156 17.7853 26.045 17.7993 26.0068 17.8037C25.9444 17.8087 25.8817 17.8103 25.8191 17.8084C25.754 17.8066 25.6692 17.8045 25.6313 17.8037C25.5928 17.8028 25.5225 17.7932 25.4742 17.7824C25.4259 17.7716 25.3553 17.7454 25.3171 17.724C25.2721 17.6981 25.2288 17.6693 25.1876 17.6378C25.1544 17.6118 25.0742 17.5387 25.0096 17.4753C24.9445 17.4118 24.8486 17.3138 24.7959 17.2574C24.7433 17.201 24.6604 17.1103 24.6113 17.0558C24.5621 17.0012 24.4797 16.9245 24.4283 16.8851C24.3689 16.8409 24.3068 16.8008 24.2422 16.7648C24.1912 16.738 24.117 16.7051 24.077 16.6916C24.037 16.6781 23.969 16.6577 23.9263 16.646C23.8834 16.6344 23.7912 16.6079 23.7207 16.5875C23.6503 16.5672 23.426 16.4843 23.2221 16.4038C23.0182 16.3233 22.8089 16.2386 22.7575 16.2153C22.712 16.1945 22.6655 16.176 22.6182 16.1599C22.589 16.1506 22.5616 16.1363 22.5372 16.1177C22.5173 16.1016 22.4934 16.0738 22.4837 16.0559C22.474 16.038 22.4723 16.0109 22.4804 15.9957C22.4885 15.9805 22.5096 15.9645 22.5274 15.9599C22.5453 15.9554 22.5801 15.9547 22.6051 15.9583C22.6298 15.9618 22.6696 15.9714 22.6926 15.9795C22.7156 15.9876 22.7703 16.0057 22.814 16.0201C22.8578 16.0344 22.9233 16.0577 22.9597 16.0721C22.9962 16.0865 23.0654 16.1121 23.1135 16.1289C23.1616 16.1458 23.2383 16.1707 23.2834 16.1843C23.3286 16.1978 23.396 16.213 23.4325 16.2184C23.4689 16.2238 23.5365 16.2305 23.5831 16.233C23.6293 16.2357 23.7767 16.2377 23.9102 16.2377H23.9296C24.0098 16.2377 24.1147 16.2355 24.1628 16.233C24.2109 16.2305 24.2948 16.2194 24.3489 16.2086C24.403 16.1978 24.4759 16.1841 24.5107 16.1778C24.5456 16.1716 24.6075 16.1635 24.6484 16.1599C24.6892 16.1564 24.7503 16.1564 24.7843 16.1599C24.8179 16.1635 24.8761 16.1701 24.9138 16.1745C24.9511 16.1788 25.0056 16.1899 25.0353 16.1988C25.0645 16.2078 25.1178 16.2296 25.1534 16.2475L25.2651 16.3043C25.3394 16.3423 25.4129 16.3819 25.4854 16.4232C25.5167 16.441 25.566 16.4666 25.5955 16.48C25.6247 16.4933 25.669 16.5103 25.6943 16.5174C25.719 16.5245 25.7579 16.5297 25.7801 16.5289C25.8023 16.528 25.8286 16.5149 25.8383 16.4995C25.8481 16.4841 25.8545 16.4573 25.8529 16.4394C25.8508 16.4215 25.8379 16.3915 25.8236 16.3728C25.8093 16.3541 25.7778 16.3262 25.754 16.311C25.7298 16.2958 25.6775 16.2606 25.6375 16.233C25.5975 16.2053 25.5246 16.151 25.4757 16.1127C25.4268 16.0744 25.3513 16.0113 25.3088 15.9728C25.2659 15.9343 25.1975 15.8692 25.1567 15.8282C25.1159 15.7872 25.0467 15.7235 25.0029 15.6867C24.9592 15.6499 24.8782 15.5974 24.8233 15.5698C24.7677 15.5421 24.6828 15.5077 24.6338 15.4934C24.5849 15.479 24.5176 15.4601 24.4848 15.4511C24.4517 15.4422 24.3849 15.4268 24.3358 15.417C24.2867 15.4072 24.2196 15.3968 24.1868 15.3943C24.1537 15.3916 24.0768 15.3895 24.0152 15.3895C23.9537 15.3895 23.8789 15.3873 23.8484 15.3848C23.8179 15.3823 23.7825 15.3748 23.769 15.3685C23.7556 15.3623 23.7402 15.3483 23.735 15.3377C23.7299 15.3271 23.7309 15.3117 23.7384 15.3036C23.7452 15.2955 23.7723 15.2786 23.7982 15.2661C23.8241 15.2537 23.8789 15.2353 23.9197 15.2256C23.9605 15.2158 24.0343 15.2033 24.0832 15.1979C24.1321 15.1925 24.2051 15.1867 24.2451 15.185C24.2851 15.1833 24.352 15.186 24.3941 15.1914C24.4357 15.1968 24.5103 15.2114 24.5592 15.2239C24.6082 15.2364 24.6722 15.2591 24.7018 15.2743L24.8946 15.375C24.971 15.4151 25.0695 15.4695 25.1132 15.4953C25.1569 15.5211 25.2282 15.5593 25.2719 15.5797C25.3157 15.6001 25.3951 15.6318 25.4485 15.6497C25.502 15.6676 25.5756 15.6894 25.612 15.6984C25.6485 15.7073 25.7076 15.7233 25.7432 15.7341C25.7789 15.745 25.8298 15.7581 25.8566 15.7635C25.8833 15.7689 25.9496 15.7768 26.0039 15.7814C26.0582 15.786 26.1326 15.7858 26.1691 15.7814C26.2056 15.777 26.2609 15.7674 26.2922 15.7602C26.3235 15.7529 26.3691 15.7325 26.3942 15.7146C26.4195 15.696 26.4391 15.6706 26.4508 15.6413C26.4568 15.6191 26.4576 15.5824 26.4524 15.56C26.4472 15.5375 26.4282 15.5046 26.4103 15.4867C26.3925 15.4688 26.3627 15.447 26.344 15.438C26.3254 15.4291 26.2773 15.4145 26.2371 15.4056C26.1969 15.3966 26.1254 15.3812 26.0783 15.3714C26.0309 15.3617 25.9598 15.3375 25.9196 15.3178C25.8794 15.298 25.8015 15.2505 25.7463 15.212C25.675 15.1616 25.6052 15.1091 25.537 15.0545C25.4775 15.0064 25.3816 14.9245 25.3242 14.8726C25.2668 14.8208 25.1772 14.7594 25.1258 14.7365C25.0694 14.7116 25.012 14.6889 24.9538 14.6683C24.894 14.6501 24.833 14.636 24.7712 14.6263C24.694 14.6137 24.6173 14.5979 24.5414 14.579C24.4564 14.5563 24.3729 14.5284 24.2913 14.4954C24.2221 14.4664 24.1261 14.4194 24.0772 14.3905C24.0283 14.3616 23.9578 14.3075 23.9205 14.27C23.8832 14.2325 23.848 14.1759 23.8424 14.1443C23.8368 14.1127 23.8509 14.0773 23.8735 14.0659C23.8965 14.0544 23.9435 14.0519 23.9779 14.0607C24.0123 14.0692 24.0969 14.0952 24.1657 14.1181C24.2345 14.1412 24.3377 14.1836 24.3951 14.2126C24.4525 14.2415 24.542 14.2956 24.5934 14.333C24.6452 14.3705 24.7225 14.4107 24.7659 14.4221C24.8088 14.4336 24.8767 14.4431 24.9169 14.4431C24.9574 14.4431 25.0019 14.4219 25.0162 14.3959C25.0307 14.3699 25.0284 14.3251 25.011 14.2962C24.994 14.2673 24.9304 14.2107 24.8701 14.1705C24.8098 14.1304 24.7114 14.0596 24.651 14.0134C24.5907 13.9672 24.5016 13.8848 24.4527 13.8301C24.4038 13.7754 24.3474 13.6975 24.3275 13.6572C24.3072 13.6168 24.3097 13.5837 24.3327 13.5837C24.3553 13.5837 24.393 13.5908 24.416 13.5995C24.4386 13.6083 24.4904 13.6318 24.5306 13.652C24.5711 13.6721 24.6627 13.7146 24.7342 13.7462C24.8057 13.7779 24.9491 13.8438 25.0527 13.8929C25.1559 13.9418 25.3134 14.0174 25.4021 14.0607C25.4912 14.1039 25.606 14.1533 25.6578 14.1705C25.7092 14.1878 25.7822 14.2184 25.8193 14.2388C25.8564 14.2592 25.9152 14.3085 25.9501 14.3489C25.9845 14.389 26.0383 14.4433 26.0698 14.4693C26.1013 14.4954 26.167 14.5543 26.2159 14.6002C26.2649 14.6462 26.3374 14.703 26.3778 14.7259C26.4178 14.749 26.4907 14.7725 26.5392 14.7784C26.5882 14.7842 26.642 14.7698 26.6594 14.7469C26.6677 14.7343 26.6717 14.7193 26.6707 14.7043C26.6698 14.6892 26.664 14.6748 26.6543 14.6633C26.6306 14.6365 26.6062 14.6103 26.5813 14.5846C26.5499 14.5534 26.5186 14.5219 26.4874 14.4904C26.4444 14.4435 26.4059 14.3926 26.3724 14.3385C26.333 14.272 26.2964 14.2039 26.2628 14.1343C26.218 14.0471 26.1675 13.9631 26.1115 13.8827C26.0451 13.7899 25.9738 13.7007 25.8978 13.6155C25.8338 13.5455 25.7676 13.4774 25.6995 13.4114C25.6537 13.3681 25.5644 13.3021 25.5012 13.2647C25.438 13.2272 25.3372 13.1683 25.2769 13.1338L25.0212 12.9871C24.941 12.9409 24.8212 12.8585 24.7553 12.8038C24.6894 12.749 24.6023 12.6523 24.5621 12.589C24.5175 12.5197 24.4687 12.4532 24.416 12.3899C24.3756 12.3437 24.3052 12.2802 24.2594 12.2484C24.2136 12.2165 24.1431 12.1791 24.1027 12.1645C24.0408 12.1408 23.9799 12.1145 23.9201 12.0858C23.8598 12.0571 23.7775 12.017 23.7375 11.9968C23.6975 11.9766 23.6598 11.9389 23.6542 11.9129C23.6482 11.8869 23.6623 11.8517 23.6853 11.8345C23.7083 11.8172 23.7672 11.8005 23.8161 11.7976C23.8646 11.7947 23.9002 11.787 23.9829 11.7924C24.0258 11.7953 24.1222 11.8159 24.197 11.8446C24.2714 11.8736 24.4289 11.9229 24.5464 11.9547C24.6641 11.9864 24.8309 12.0288 24.9172 12.049C25.0029 12.0692 25.1252 12.1116 25.1884 12.1433C25.2516 12.1749 25.3358 12.2315 25.3762 12.269C25.4162 12.3064 25.4891 12.3795 25.5376 12.4313C25.5865 12.4831 25.685 12.568 25.7571 12.6198C25.8288 12.6716 25.9695 12.7517 26.07 12.7979C26.1706 12.8441 26.3044 12.8982 26.3676 12.9184C26.4309 12.9386 26.5388 12.9598 26.6076 12.9657C26.6764 12.9715 26.7962 12.969 26.8735 12.9605C26.9512 12.9517 27.0545 12.9353 27.1034 12.9236C27.1519 12.9122 27.2107 12.891 27.2337 12.8764C27.2563 12.862 27.2706 12.8289 27.2648 12.8031C27.259 12.7773 27.2308 12.7301 27.2024 12.6985C27.162 12.6577 27.1164 12.6225 27.0669 12.5936C27.009 12.5632 26.9475 12.5403 26.8839 12.5255C26.8296 12.5141 26.7285 12.4881 26.6597 12.4679C26.5908 12.4477 26.4779 12.4075 26.4091 12.3788C26.3403 12.3501 26.2489 12.291 26.2056 12.2479C26.1477 12.1869 26.0937 12.1222 26.0441 12.0542C25.9979 11.9907 25.9393 11.8659 25.9134 11.7764C25.8875 11.6871 25.8313 11.5598 25.7882 11.4936C25.7451 11.4274 25.6607 11.3142 25.6004 11.2422C25.5401 11.1702 25.4438 11.0759 25.3868 11.0327C25.3294 10.9894 25.2187 10.914 25.1414 10.8649C25.0637 10.816 24.9159 10.7241 24.8127 10.6608C24.7091 10.5973 24.5516 10.4889 24.4629 10.4198C24.3738 10.3505 24.2633 10.2446 24.2175 10.1841C24.1717 10.1235 24.1199 10.0386 24.1029 9.99552C24.0855 9.95224 24.0762 9.89792 24.0818 9.87503C24.0873 9.85193 24.1157 9.83071 24.1445 9.82779C24.1729 9.82488 24.2341 9.84132 24.2801 9.86442C24.3259 9.88752 24.4339 9.93933 24.5201 9.9797C24.6059 10.0201 24.7727 10.0956 24.8904 10.1474C25.0077 10.1995 25.2123 10.2866 25.3441 10.3414C25.4761 10.3961 25.6711 10.4694 25.7772 10.5039C25.8837 10.5384 26.0363 10.5905 26.1165 10.6192C26.1971 10.6479 26.3096 10.7093 26.367 10.7553C26.4244 10.8013 26.5208 10.8887 26.5811 10.9492C26.641 11.0098 26.7446 11.0803 26.8105 11.1063C26.8764 11.1323 26.9939 11.1606 27.0712 11.1694C27.149 11.1779 27.2615 11.185 27.3218 11.185C27.3821 11.185 27.455 11.1708 27.4836 11.1536C27.512 11.1363 27.5355 11.1032 27.5355 11.0801C27.5355 11.0572 27.5168 11.0148 27.4938 10.9858C27.4712 10.9571 27.4144 10.917 27.3686 10.8968C27.3228 10.8766 27.231 10.8341 27.1651 10.8025C27.0992 10.7709 26.9935 10.7118 26.9303 10.6716C26.8671 10.6315 26.7805 10.5441 26.7372 10.4777C26.69 10.4055 26.6395 10.3356 26.5859 10.2681C26.5359 10.21 26.48 10.1573 26.419 10.111C26.3672 10.0736 26.2924 10.0192 26.2518 9.99053C26.1987 9.95285 26.1448 9.91615 26.0904 9.88044C26.0316 9.83887 25.9805 9.78749 25.9391 9.72853C25.9047 9.67651 25.8483 9.57996 25.8139 9.51357C25.7791 9.4474 25.7018 9.33898 25.6415 9.2726C25.5812 9.20622 25.492 9.12131 25.4431 9.08406C25.3946 9.04661 25.2983 8.98293 25.2295 8.94256C25.1607 8.90219 25.0336 8.83622 24.9478 8.79585L24.6556 8.65955C24.5812 8.62501 24.4658 8.58256 24.3999 8.56529L24.1599 8.50244C24.094 8.48517 24.0142 8.45916 23.9827 8.4448C23.9512 8.43044 23.9228 8.39985 23.9199 8.37675C23.917 8.35386 23.9356 8.31599 23.9616 8.2931C23.9875 8.27 24.0461 8.2417 24.0923 8.23004C24.1381 8.2186 24.2368 8.21381 24.3114 8.21964C24.386 8.22547 24.5033 8.25127 24.5725 8.27728C24.6413 8.30329 24.7657 8.36697 24.849 8.41879C24.9319 8.4706 25.085 8.54843 25.1882 8.59171C25.2914 8.635 25.451 8.69618 25.5428 8.72801C25.6346 8.75985 25.7896 8.79981 25.8873 8.81708C25.9849 8.83435 26.1256 8.86036 26.2006 8.87472C26.275 8.88908 26.4066 8.92924 26.4928 8.96379C26.5786 8.99833 26.7077 9.04557 26.7799 9.06846C26.8516 9.09156 26.9616 9.11049 27.0248 9.11049C27.088 9.11049 27.1773 9.09634 27.2231 9.07907C27.2689 9.0618 27.3276 9.0335 27.3535 9.01623C27.3794 8.99895 27.4097 8.96358 27.4215 8.93777C27.4267 8.92279 27.428 8.9067 27.4253 8.89107C27.4225 8.87543 27.4158 8.86077 27.4057 8.8485C27.3854 8.82561 27.3527 8.80438 27.3328 8.80126C27.2946 8.79751 27.2562 8.79578 27.2178 8.79606C27.1664 8.79452 27.1154 8.78576 27.0665 8.77005C27.0265 8.75569 26.9417 8.71074 26.8787 8.67037C26.8157 8.63 26.7055 8.56175 26.6337 8.51846C26.5616 8.47518 26.4443 8.40921 26.3726 8.37176C26.3009 8.3343 26.1954 8.28727 26.1378 8.26708C26.0802 8.2469 25.9956 8.22338 25.9501 8.21485C25.9038 8.20611 25.8336 8.18967 25.7934 8.17823C25.7532 8.16678 25.6829 8.13141 25.6367 8.09978C25.5909 8.06794 25.4427 7.94058 25.308 7.81677C25.1733 7.69295 25.0158 7.54208 24.9586 7.48153C24.9012 7.42097 24.8448 7.35251 24.8332 7.32962C24.8215 7.30517 24.818 7.27759 24.8231 7.25096C24.826 7.24102 24.8323 7.23244 24.8409 7.2267C24.8495 7.22096 24.8598 7.21842 24.8701 7.21954C24.89 7.22245 24.9252 7.23431 24.9482 7.24576C24.9708 7.2572 25.0226 7.29258 25.0628 7.32421C25.1033 7.35584 25.1806 7.41244 25.2353 7.4499C25.29 7.48735 25.4 7.55103 25.4806 7.5914C25.5608 7.63177 25.6831 7.6813 25.7519 7.70148C25.8207 7.72167 25.9289 7.73811 25.9919 7.73811C26.0549 7.73811 26.1583 7.73582 26.2213 7.73291C26.2845 7.72999 26.39 7.71834 26.4561 7.70668C26.522 7.69524 26.6209 7.6763 26.6756 7.66486C26.7299 7.65341 26.8145 7.63905 26.8634 7.63344C26.9119 7.62782 26.9917 7.6324 27.0406 7.64405C27.0895 7.65549 27.1879 7.69316 27.26 7.7277C27.3317 7.76246 27.4325 7.81885 27.4843 7.85339C27.5357 7.88794 27.6109 7.94932 27.6511 7.98969C27.6915 8.03006 27.7429 8.09125 27.7661 8.126C27.7887 8.16054 27.8221 8.20528 27.8391 8.22547C27.8565 8.24565 27.8917 8.25751 27.9176 8.25169C27.9435 8.24586 27.9738 8.22713 27.9852 8.20965C27.997 8.19238 28.0013 8.14285 27.9957 8.09978C27.9902 8.05649 27.9642 7.98574 27.9383 7.94246C27.9124 7.89917 27.8563 7.82863 27.8132 7.78535C27.7699 7.74206 27.6807 7.65966 27.6148 7.60201C27.5489 7.54437 27.4291 7.45947 27.3489 7.41348C27.2601 7.36309 27.1695 7.31589 27.0772 7.27198C27.0084 7.24034 26.898 7.19311 26.8319 7.1673C26.7658 7.1415 26.6628 7.10841 26.6025 7.09405C26.5421 7.07969 26.4321 7.05597 26.3571 7.04161C26.2827 7.02726 26.1817 7.0131 26.1328 7.01019C26.0839 7.00728 25.9923 7.00041 25.9293 6.99458C25.8663 6.98876 25.7722 6.97232 25.7208 6.95796C25.669 6.9436 25.582 6.89636 25.5277 6.85329C25.4569 6.79348 25.3922 6.72677 25.3345 6.65414C25.2827 6.58797 25.1982 6.48891 25.1468 6.43398C25.095 6.37925 25.0177 6.29684 24.9744 6.25065C24.9315 6.20445 24.8562 6.15034 24.8075 6.13016C24.7362 6.09869 24.6665 6.06369 24.5986 6.02528C24.5327 5.98782 24.4084 5.92415 24.3222 5.88378C24.2458 5.84864 24.171 5.81018 24.0979 5.76849C24.0602 5.7456 24.0181 5.70773 24.004 5.68484C23.9895 5.66174 23.9748 5.64613 23.9777 5.60097C23.9794 5.57808 24.0011 5.54957 24.0299 5.53813C24.0587 5.52648 24.1199 5.52169 24.1655 5.52752C24.2111 5.53334 24.3383 5.56393 24.4471 5.59556C24.5563 5.6274 24.7584 5.68858 24.896 5.73187C25.0336 5.77515 25.2473 5.83404 25.3708 5.86276C25.4943 5.89168 25.6587 5.92935 25.736 5.94662C25.8137 5.96389 25.938 5.97804 26.0128 5.97804C26.0872 5.97804 26.2188 5.97326 26.3051 5.96764C26.3909 5.96181 26.5459 5.95702 26.6491 5.95702C26.7523 5.95702 26.877 5.9641 26.9255 5.97284C26.9745 5.98158 27.0567 6.00509 27.1085 6.02528C27.1599 6.04546 27.2563 6.0927 27.3222 6.12995C27.3881 6.1672 27.4913 6.2263 27.5516 6.26084C27.6119 6.29539 27.6917 6.33784 27.7292 6.35511C27.7665 6.37238 27.8511 6.39132 27.917 6.39714C27.9829 6.40276 28.0534 6.38861 28.0733 6.36572C28.0835 6.35258 28.0903 6.33707 28.0931 6.3206C28.0958 6.30414 28.0944 6.28724 28.089 6.27146C28.0772 6.24253 28.0376 6.19779 28.0003 6.17178C27.963 6.14577 27.8903 6.10103 27.8385 6.0721C27.7871 6.04338 27.6907 5.97721 27.6248 5.92539C27.5589 5.87358 27.4482 5.78639 27.3794 5.73145C27.3106 5.67651 27.2024 5.59411 27.1394 5.54812C27.0764 5.50213 26.9682 5.44074 26.8994 5.41202C26.8141 5.37749 26.7269 5.34776 26.6383 5.32296C26.5639 5.30277 26.4607 5.27926 26.4089 5.27073C26.3536 5.26154 26.2979 5.25453 26.2421 5.24971C26.1862 5.24535 26.1305 5.24008 26.0748 5.2339C26.0234 5.22828 25.9198 5.1929 25.8454 5.15544C25.771 5.11799 25.6603 5.0566 25.6 5.01914C25.5397 4.98168 25.4056 4.89928 25.3024 4.83581C25.1992 4.77234 25.0231 4.67558 24.9113 4.62106C24.7992 4.56633 24.6374 4.49786 24.5512 4.46915C24.4649 4.44043 24.2962 4.38841 24.1756 4.35386L24.1072 4.33576C24.0498 4.31849 23.9943 4.31765 23.9773 4.31204C23.9603 4.30621 23.9531 4.28727 23.962 4.27C23.9705 4.25273 24.0057 4.21964 24.0401 4.19675C24.0745 4.17365 24.1636 4.12641 24.2384 4.09187C24.3128 4.05733 24.4865 4.00072 24.6245 3.96618L24.9791 3.87712C25.0365 3.86276 25.1304 3.84632 25.188 3.84049C25.245 3.83467 25.3298 3.83716 25.3758 3.8457C25.4216 3.85444 25.5036 3.88502 25.5584 3.91374C25.6131 3.94267 25.6854 3.97326 25.7202 3.982C25.7546 3.99074 25.8035 3.99531 25.8294 3.9924C25.8553 3.98949 25.8974 3.96368 25.9233 3.93476C25.9492 3.90583 25.961 3.85402 25.9496 3.81947C25.9363 3.78169 25.9169 3.74634 25.8922 3.7148C25.8461 3.6683 25.7973 3.62453 25.7461 3.5837C25.6858 3.5348 25.5778 3.46405 25.5061 3.42659C25.4344 3.38914 25.3405 3.34668 25.2976 3.33212C25.2399 3.31557 25.1801 3.30675 25.12 3.3059H24.1182C23.7883 3.3059 23.4642 3.29175 23.3981 3.27447C23.3319 3.2572 23.2499 3.21954 23.2155 3.19061C23.2134 3.18916 23.2061 3.18603 23.2022 3.18395C22.4713 2.24753 21.7192 2.27978 21.7192 2.27978H21.2232C21.2232 2.27978 21.0058 1.78223 19.9539 1.04162C19.9178 0.993131 19.6277 0.811049 19.5912 0.628966C19.5912 0.628966 19.5066 0.932368 19.3738 1.24805C19.3738 1.24805 19.2047 1.64343 19.4944 2.01279C19.4944 2.01279 19.6451 2.32619 19.0592 2.30413C19.0592 2.30413 18.5517 2.27999 18.0319 1.97638C18.0319 1.97638 17.6931 1.7943 17.2823 1.7943C17.2823 1.7943 16.6776 1.7943 16.3634 1.98845C16.3634 1.98845 16.6173 2.19488 17.1613 2.20695C17.1613 2.20695 17.1374 2.37675 16.7864 2.37675C16.7864 2.37675 16.6415 2.37675 16.5205 2.34034C16.5205 2.34034 16.0245 2.1826 15.6138 2.59525C15.6138 2.59525 15.5394 2.67204 15.6863 2.64374C15.6863 2.64374 16.0992 2.53095 16.2546 2.55884C16.2546 2.55884 16.4683 2.55696 16.7625 2.68016C16.7625 2.68016 17.2581 2.89865 17.7053 2.86224C17.7053 2.86224 17.6742 2.99833 17.4956 3.09551C17.4556 3.11278 17.5041 3.1157 17.5041 3.1157C17.5919 3.11341 17.7673 3.11154 17.8383 3.12922C17.8383 3.12922 17.9156 3.14858 17.9059 3.22328C17.9059 3.22328 17.9059 3.29799 17.7416 3.33565C17.7416 3.33565 17.3186 3.4449 16.9437 3.65133C16.9437 3.65133 15.9885 4.29476 15.3597 4.50098C15.3597 4.50098 14.7164 4.78524 14.2284 4.92591L14.2008 4.93049C13.9741 4.9923 13.7927 4.99875 13.7927 4.99875C13.7907 4.99958 13.7894 5.00041 13.7876 5.00145C13.5778 5.01602 13.1103 5.09634 12.7729 5.50858L12.3014 6.24898C12.3014 6.24898 12.1087 6.57444 12.1804 7.05015L12.2289 7.35355C12.2289 7.35355 12.2527 7.55998 12.5431 7.53563C12.5431 7.53563 13.2991 7.45218 13.8935 7.18874C13.8935 7.18874 14.0667 7.13255 14.1129 7.25033C14.1129 7.25033 14.1741 7.4499 13.8989 7.5013C13.8989 7.5013 13.2257 7.69586 13.0473 7.75226C13.0473 7.75226 12.7899 7.82135 12.9708 8.02361C12.9708 8.02361 13.1747 8.24898 13.6338 8.24898C13.6338 8.24898 13.9494 8.26937 14.3473 8.00322C14.3473 8.00322 14.648 7.84965 15.0001 7.84965C15.0001 7.84965 15.6834 7.86484 16.1626 8.04421C16.1626 8.04421 17.0807 8.34117 17.6413 8.34117C17.6413 8.34117 17.8889 8.35636 18.0953 8.25418C18.0953 8.25418 18.2945 8.1518 18.4014 8.38237C18.4014 8.38237 18.5119 8.65102 18.3896 9.00436L18.371 9.06138C18.371 9.06138 17.542 11.5412 15.9184 13.0499C15.9184 13.0499 15.1243 13.8303 14.917 14.2465C14.917 14.2465 14.7745 14.511 14.4711 14.7426C14.4642 14.7461 14.4565 14.7505 14.4541 14.7505C14.2014 14.9261 13.9003 15.0139 13.9003 15.0139C13.7675 15.0497 13.6798 15.1015 13.6798 15.1015C13.4127 15.2183 12.8038 15.5458 12.0024 16.3503C11.26 15.7704 9.78818 14.8448 9.78818 14.8448C9.65223 14.7667 9.52913 14.6431 9.52913 14.6431C8.48649 13.232 7.2623 13.5506 7.2623 13.5506C6.59518 13.7391 6.31686 14.4415 6.31686 14.4415C5.6887 15.2543 4.61352 17.3483 4.61352 17.3483C4.37395 17.8426 3.83636 18.7334 3.83636 18.7334C3.38291 19.4293 3.09816 20.034 3.09816 20.034C2.98811 20.2486 2.97506 20.8924 2.97506 20.8924C2.28204 22.1474 2.37281 22.9734 2.37281 22.9734C2.35333 23.474 2.75496 23.3311 2.75496 23.3311C3.84942 23.0318 4.46472 22.3035 4.46472 22.3035C4.79507 21.9522 4.53601 21.5687 4.53601 21.5687L4.38701 21.315C4.17976 20.9573 4.41291 20.7557 4.41291 20.7557C4.64606 20.554 4.67839 20.0013 4.67839 20.0013C4.74305 19.4615 5.0021 19.1298 5.0021 19.1298C5.27401 18.7201 5.84393 18.1089 5.84393 18.1089C6.53695 17.5042 7.0679 16.4313 7.0679 16.4313C7.0679 16.4313 7.16179 16.2167 7.46954 16.2556C7.46954 16.2556 7.71844 16.2627 7.85191 16.4704C7.96858 16.6581 8.32504 17.1627 8.32504 17.1627C8.72792 17.8374 9.82652 18.723 9.82652 18.723C10.1245 18.9342 10.0309 19.0164 10.0309 19.0164C9.97263 19.0751 9.70259 18.954 9.70259 18.954C8.04506 18.1955 6.6244 18.1616 6.6244 18.1616C6.21862 18.1277 5.64352 18.6822 5.64352 18.6822C5.64352 18.6822 5.04086 19.2928 5.07319 19.9951C5.07319 19.9951 5.07319 20.3984 5.125 20.665C5.125 20.665 5.4941 22.9669 5.51358 23.3962C5.51358 23.3962 5.57824 24.2871 5.76621 24.7228C5.76621 24.7228 5.82444 24.8073 5.79854 24.9049C5.79854 24.9049 5.63026 25.5683 6.16122 26.0494C6.16122 26.0494 6.3295 26.2184 6.40742 26.4071C6.40742 26.4071 7.15225 28.436 8.00713 29.0474C8.00713 29.0474 8.25976 29.2295 8.48628 28.989C8.48628 28.989 8.93973 28.6768 8.93973 27.4543C8.93973 27.4543 9.01744 26.4333 8.30515 26.2121C8.30515 26.2121 7.58622 26.1081 7.58622 25.6334C7.58622 25.6334 7.62518 25.0416 7.41794 24.7686C7.41794 24.7686 6.97112 24.0207 6.95807 23.5329C6.95807 23.5329 6.90626 22.7461 6.90626 22.46C6.90626 22.46 6.91268 21.7446 6.7444 21.3739C6.7444 21.3739 6.46586 20.7626 6.81569 20.6327C6.81569 20.6327 7.15246 20.4895 7.50871 20.7759C7.50871 20.7759 8.3182 21.4586 9.03071 21.7903C9.03071 21.7903 9.50985 22.0309 9.71067 22.187C9.71067 22.187 9.8373 22.2975 10.1332 22.4666C10.1332 22.4666 10.4429 23.2996 12.0583 23.6461C12.0583 23.6461 13.7163 26.1605 14.355 26.7675C14.355 26.7675 16.7901 29.0741 18.189 29.9757C18.189 29.9757 19.802 31.0245 20.0202 31.5712C20.0202 31.5712 20.1097 31.7756 20.032 31.8272C20.032 31.8272 19.9495 31.8798 19.775 31.6954C18.4246 30.4088 17.0558 29.6992 17.0558 29.6992C17.0558 29.6992 16.2409 32.1104 19.1999 36.718C19.1999 36.718 19.4003 37.0485 19.2428 37.2859L19.036 37.6324C19.036 37.6324 18.9179 37.85 18.5434 37.85C18.5434 37.85 16.4046 37.8996 14.8377 37.761C14.8377 37.761 14.4827 37.7214 14.3252 37.6917C14.3252 37.6917 13.4384 37.4838 12.5907 37.8401H11.6938C11.6938 37.8401 10.9744 37.8498 10.2847 38.1666C10.2847 38.1666 9.62404 38.4338 9.45659 38.7207C9.45659 38.7207 9.32872 38.8986 9.49618 39.077C9.49618 39.077 9.92973 39.7004 11.6248 39.8688C11.6248 39.8688 12.0142 39.9237 12.147 39.6016C12.147 39.6016 12.4032 39.0374 12.6991 39.0374C12.6991 39.0374 12.9946 39.0277 13.182 39.1463C13.182 39.1463 13.5557 39.3935 14.3154 39.0572C14.3154 39.0572 14.7392 38.9681 15.3006 38.9879C15.3006 38.9879 17.4292 39.067 19.6467 39.7895C19.6467 39.7895 19.9976 39.8888 20.2737 39.8888C20.2737 39.8888 20.6937 39.9291 20.8206 39.3685C20.8316 39.3348 20.9545 38.8945 20.8027 38.4816C20.8003 38.4718 20.7862 38.4352 20.7833 38.4248C20.7833 38.4248 20.5727 37.9241 20.5468 37.8786L20.529 37.8334C20.2962 37.2183 19.9918 36.2071 19.9918 35.1192C19.9918 35.1192 20.0505 33.1602 21.135 31.6263C21.135 31.6263 21.6649 30.8181 21.766 30.1716C21.766 30.1716 21.7936 29.8605 21.9498 29.8852C21.9498 29.8852 22.0765 29.8962 22.0327 30.3655C22.0327 30.3655 22.0323 31.0851 21.3244 32.1664C21.3244 32.1664 20.4521 33.4264 20.4521 35.0564C20.4521 35.0564 20.3744 37.6576 22.3432 40.5016C22.3432 40.5016 22.5254 40.7563 22.2137 41.1517C22.2137 41.1517 21.4535 42.2791 18.9143 44.1172C18.9143 44.1172 18.4947 44.425 18.4242 44.7363C18.4242 44.7363 18.3254 45.0568 18.0487 45.2314C18.0487 45.2314 16.5599 46.0941 16.2923 46.9948C16.2923 46.9948 16.1843 47.2682 16.4894 47.339C16.4894 47.339 17.0245 47.4615 17.7571 47.4615C17.7571 47.4615 19.0482 47.4853 19.4664 47.0468C19.4664 47.0468 19.6733 46.929 19.5042 46.5611C19.5042 46.5611 19.3483 46.1832 19.579 45.9857C19.579 45.9857 19.7307 45.8286 19.9271 45.7878C19.9271 45.7878 20.3825 45.7312 20.4579 45.1654C20.4579 45.1654 20.4627 45.0354 20.6363 44.831C20.6363 44.831 22.0106 43.0033 24.0312 41.9628C24.0312 41.9628 24.6011 41.8068 24.5234 41.1825C24.5234 41.1825 24.4716 40.7663 24.4844 40.6622C24.4844 40.6622 24.4977 40.3597 24.2254 39.9859C24.2254 39.9859 23.8237 39.4528 23.8237 38.5942C23.8237 38.5942 23.8314 37.6986 24.6527 37.1767C24.6527 37.1767 28.5385 35.0046 28.655 32.1175C28.655 32.1175 28.6432 31.8347 28.8751 31.838C28.8751 31.838 29.268 31.8182 29.1961 32.6067C29.1961 32.6067 29.1646 33.0114 29.0512 33.4794C29.0512 33.4794 28.6995 34.6849 29.103 35.2353C29.103 35.2353 29.1136 34.5495 29.3928 34.1443C29.3928 34.1443 29.5631 33.925 29.5271 33.4794C29.5271 33.4794 29.4817 32.9496 29.8375 32.9808C29.8375 32.9808 30.1262 32.9823 30.0443 33.7706C30.0443 33.7706 30.0346 34.7536 29.2931 35.7878C29.2931 35.7878 28.8761 36.3474 28.8575 36.8676C28.8575 36.8676 28.8307 37.3554 29.2423 37.6407C29.2423 37.6407 29.1706 37.1342 29.3327 36.8279C29.3327 36.8279 29.582 36.2941 30.114 35.7993C30.114 35.7993 30.9713 35.0795 31.0818 33.1567C31.0818 33.1567 31.1158 32.6148 30.7407 31.9526C30.7407 31.9526 30.669 31.8411 30.68 31.7445C30.68 31.7445 30.6889 31.5799 30.8572 31.7013C30.8657 31.7098 31.4486 32.1693 31.4486 33.2056C31.4486 33.2056 31.4041 34.4186 31.9974 34.9835C31.9974 34.9835 32.0281 34.7205 31.9205 34.225C31.9205 34.225 31.7854 33.6686 32.0204 33.2807C32.0204 33.2807 32.1669 33.01 32.1516 32.6616C32.1516 32.6616 32.1286 31.8413 31.7201 31.2066C31.7201 31.2066 36.0637 30.4787 34.6648 24.574C34.6648 24.574 34.3341 22.8624 35.3235 21.6409C35.3253 21.6388 36.0731 20.6951 35.8952 19.8925ZM18.7007 1.99885C19.249 2.18614 19.0006 1.72625 19.0006 1.72625C18.6671 1.12444 18.2881 0.619392 18.2881 0.619392C18.322 1.14733 18.0845 1.27801 18.0845 1.27801C17.8531 1.437 18.028 1.61866 18.028 1.61866C18.2541 1.83987 18.7007 1.99885 18.7007 1.99885Z" fill="#B8B8B8"/>
<path d="M7.3808 14.3189C7.38328 14.3068 7.40753 14.2737 7.43468 14.2452C7.46203 14.2165 7.51157 14.1797 7.54472 14.1628C7.57788 14.146 7.63135 14.1285 7.66347 14.1237C7.6956 14.1189 7.74223 14.115 7.7671 14.115C7.79197 14.115 7.82885 14.1198 7.84916 14.1258C7.86947 14.1318 7.90056 14.1435 7.91838 14.1518C7.93621 14.1601 7.95921 14.1786 7.97019 14.193C7.9827 14.2121 7.99149 14.2334 7.9961 14.2558C7.99872 14.2796 7.99252 14.3036 7.97869 14.3231C7.96584 14.3399 7.93662 14.3593 7.91403 14.3663C7.89144 14.3734 7.83714 14.3813 7.79321 14.3836C7.74927 14.3859 7.67446 14.388 7.627 14.388H7.51053C7.49395 14.388 7.46473 14.3861 7.44587 14.3836C7.42657 14.3811 7.40849 14.3728 7.39406 14.3597C7.38909 14.3542 7.38533 14.3478 7.38304 14.3407C7.38076 14.3337 7.37999 14.3263 7.3808 14.3189ZM5.26505 16.9049C5.28163 16.8679 5.35064 16.7316 5.41841 16.6015C5.48597 16.4714 5.60057 16.2696 5.67311 16.1528C5.74565 16.0359 5.84181 15.8848 5.88678 15.8168C5.93196 15.7487 5.99682 15.6669 6.03123 15.6347C6.06584 15.6024 6.1133 15.5683 6.13734 15.5587C6.16056 15.5492 6.18591 15.5462 6.2107 15.55C6.21988 15.5532 6.22828 15.5584 6.23532 15.5651C6.24236 15.5719 6.24788 15.58 6.25153 15.5891C6.25754 15.606 6.26438 15.6428 6.26686 15.6715C6.26935 15.7002 6.26728 15.7539 6.26251 15.7908C6.25479 15.8368 6.24019 15.8814 6.2192 15.9231C6.20034 15.9589 6.14873 16.0369 6.105 16.0964C6.06086 16.1562 5.96988 16.2869 5.90211 16.3869C5.83435 16.487 5.72181 16.651 5.65176 16.7511C5.58172 16.8512 5.50193 16.9594 5.47457 16.9917C5.44586 17.0256 5.41557 17.0582 5.3838 17.0893C5.36142 17.1107 5.32826 17.1342 5.31043 17.1413C5.29261 17.1484 5.2694 17.1494 5.25862 17.1434C5.24785 17.1375 5.23541 17.118 5.23065 17.1001C5.22588 17.0822 5.22505 17.0462 5.22837 17.0198C5.23168 16.9935 5.24826 16.9419 5.26505 16.9049ZM8.64146 16.4671C8.64146 16.4802 8.64809 16.5232 8.65658 16.5624C8.66467 16.6017 8.68415 16.6631 8.69948 16.6989C8.71503 16.7347 8.75295 16.7961 8.78362 16.8354C8.8145 16.8747 8.88352 16.9596 8.93699 17.0239C8.99045 17.0882 9.06133 17.1721 9.09449 17.2104C9.12786 17.2487 9.16848 17.2915 9.18526 17.3057C9.20205 17.32 9.22941 17.3356 9.24598 17.3404C9.26256 17.3452 9.29075 17.3473 9.30857 17.3448C9.3264 17.3423 9.35168 17.3259 9.36473 17.308C9.37779 17.2901 9.3894 17.2541 9.39064 17.2279C9.39188 17.2016 9.38504 17.1627 9.37572 17.1411C9.36598 17.1196 9.34567 17.0797 9.33033 17.0522C9.315 17.0248 9.2721 16.9605 9.23521 16.9091C9.19832 16.8577 9.13242 16.778 9.08827 16.7313C9.03823 16.6783 8.98787 16.6255 8.93719 16.573C8.90191 16.5361 8.86448 16.5013 8.82507 16.4689C8.80248 16.4523 8.76767 16.4309 8.74736 16.4213C8.72705 16.4117 8.69803 16.4059 8.6827 16.4084C8.66736 16.4109 8.65161 16.4196 8.64809 16.4279C8.64456 16.4363 8.64146 16.454 8.64146 16.4671ZM6.20718 19.0916C6.1363 19.2175 5.93051 19.4295 5.86813 19.3941C5.80575 19.359 5.91082 19.0899 5.9817 18.9638C6.05237 18.8379 6.16013 18.764 6.22251 18.7994C6.28489 18.8348 6.27805 18.9652 6.20718 19.0916ZM3.2751 20.2581C3.27692 20.18 3.29381 20.103 3.32484 20.0313C3.34079 19.9966 3.37872 19.937 3.40898 19.8994C3.43923 19.8617 3.48296 19.8057 3.50638 19.7754C3.52959 19.7448 3.55799 19.7092 3.56938 19.6961C3.5812 19.683 3.60233 19.6663 3.61684 19.659C3.63135 19.6517 3.6529 19.6517 3.6643 19.659C3.67611 19.6663 3.68648 19.6938 3.68813 19.7198C3.68938 19.7458 3.68129 19.8053 3.66948 19.8519C3.65369 19.9101 3.63253 19.9667 3.60627 20.0209C3.58327 20.0675 3.53581 20.146 3.50099 20.1953C3.47259 20.2372 3.44106 20.2768 3.4067 20.3139C3.38929 20.3299 3.3609 20.3443 3.34349 20.3455C3.32608 20.3468 3.30349 20.3364 3.29334 20.3218C3.28318 20.3072 3.2751 20.2785 3.2751 20.2581ZM2.88859 22.0906C2.88134 22.0935 2.85667 22.1218 2.83326 22.1539C2.80984 22.1859 2.78414 22.2417 2.77564 22.2779C2.7561 22.3538 2.74553 22.4318 2.74414 22.5101C2.74414 22.5349 2.74766 22.573 2.75181 22.5946C2.75616 22.6163 2.76797 22.6533 2.77813 22.6766C2.78828 22.6997 2.80735 22.7295 2.8202 22.7426C2.83305 22.7557 2.85336 22.764 2.86496 22.7611C2.87657 22.7582 2.89916 22.7355 2.91491 22.7109C2.93066 22.6862 2.95449 22.6387 2.96755 22.6052C2.9804 22.5719 2.99946 22.5089 3.00962 22.4654C3.01977 22.4219 3.02786 22.3541 3.02786 22.3147C3.02786 22.2754 3.02102 22.2186 3.01211 22.188C3.00361 22.1576 2.98454 22.1231 2.97004 22.1114C2.95629 22.1 2.94013 22.0919 2.92278 22.0877C2.91131 22.0864 2.89968 22.0874 2.88859 22.0906ZM7.92232 20.6285C7.94014 20.6479 8.00522 20.682 8.0676 20.7045C8.12998 20.727 8.21101 20.7584 8.24769 20.7744C8.28458 20.7906 8.35007 20.8221 8.39297 20.8445C8.43629 20.867 8.53431 20.9249 8.6112 20.9729C8.68788 21.021 8.83046 21.113 8.92766 21.1771C9.02527 21.2412 9.14298 21.3173 9.18941 21.3463C9.23583 21.3752 9.31956 21.4199 9.3753 21.4455C9.43126 21.4711 9.5096 21.4975 9.5498 21.5038C9.58959 21.5102 9.64596 21.5142 9.67477 21.5125C9.70358 21.5109 9.73238 21.4978 9.73881 21.4832C9.74503 21.4688 9.74503 21.4387 9.73881 21.4162C9.73259 21.3937 9.70503 21.3529 9.67788 21.3257C9.65073 21.2984 9.567 21.2326 9.49177 21.1798C9.41696 21.1269 9.25863 21.0256 9.14029 20.955C9.02195 20.8845 8.8429 20.7861 8.74218 20.7363C8.64146 20.6866 8.50012 20.6263 8.4282 20.6021C8.35629 20.578 8.25681 20.5414 8.20749 20.5203C8.15796 20.4995 8.08998 20.4812 8.05641 20.4795C8.02283 20.4779 7.97703 20.4883 7.95465 20.5029C7.93248 20.5172 7.90885 20.5434 7.90243 20.5611C7.896 20.5788 7.90491 20.6092 7.92232 20.6285ZM5.94336 21.6819C5.9531 21.7027 5.95952 21.8091 5.95786 21.9183C5.9562 22.0276 5.9589 22.1851 5.96346 22.2685C5.96822 22.352 5.98522 22.4912 6.00159 22.5778C6.01734 22.6645 6.05009 22.8075 6.07413 22.8957C6.09796 22.984 6.13195 23.118 6.14977 23.1935C6.16718 23.2688 6.18707 23.3594 6.19329 23.3947C6.19951 23.4301 6.20241 23.4761 6.19909 23.4969C6.19656 23.5158 6.1896 23.5339 6.17878 23.5496C6.1707 23.5575 6.14853 23.555 6.12925 23.5437C6.10998 23.5325 6.06832 23.4747 6.03641 23.4153C6.00449 23.356 5.94418 23.2351 5.90253 23.1469C5.85805 23.0508 5.82119 22.9513 5.79228 22.8493C5.7677 22.7435 5.74916 22.6364 5.73673 22.5284C5.72575 22.4305 5.71808 22.3322 5.71373 22.2338C5.71206 22.1462 5.71206 22.0586 5.71373 21.971C5.71539 21.8875 5.71912 21.797 5.72223 21.7697C5.72554 21.7425 5.73591 21.7031 5.74565 21.6823C5.75747 21.6585 5.7743 21.6376 5.79497 21.6209C5.81172 21.6084 5.83189 21.6013 5.85279 21.6006C5.8673 21.602 5.88968 21.6126 5.90232 21.6239C5.91496 21.6351 5.93361 21.6609 5.94336 21.6819ZM8.12791 28.233C8.17806 28.3162 8.14407 28.4252 8.0591 28.4723C7.97434 28.5193 7.87735 28.482 7.82077 28.4032C7.69829 28.2323 7.5584 27.9618 7.64316 27.9146C7.72793 27.8675 8.02449 28.0609 8.12791 28.233ZM10.958 19.0676C10.9742 19.0556 11.1725 18.7634 11.3992 18.418C11.626 18.0727 11.8566 17.7346 11.9126 17.6667C11.9681 17.5989 12.0413 17.5042 12.0753 17.4563C12.1088 17.4085 12.1428 17.3479 12.1509 17.3221C12.159 17.2961 12.1607 17.2618 12.1546 17.246C12.1486 17.2299 12.1097 17.2235 12.068 17.2314C12.0264 17.2393 11.9364 17.2901 11.8693 17.344C11.8017 17.3979 11.6989 17.5057 11.6413 17.5835C11.5837 17.6613 11.4761 17.8361 11.403 17.9718C11.3106 18.1443 11.2214 18.3185 11.1354 18.4943C11.0618 18.646 10.9885 18.8044 10.9727 18.8464C10.957 18.8885 10.9358 18.9505 10.9257 18.9844C10.9155 19.0185 10.9124 19.056 10.9184 19.0678C10.9244 19.0797 10.9423 19.0795 10.958 19.0676ZM16.6164 15.7383C16.3977 15.6984 16.1793 15.7013 16.0761 15.7034C15.9729 15.7054 15.7855 15.7202 15.6604 15.736C15.5352 15.7518 15.3597 15.7847 15.2701 15.8087C15.1806 15.8326 15.0815 15.8588 15.0496 15.8667C15.0177 15.8746 14.9626 15.8779 14.9265 15.874C14.8909 15.8698 14.8569 15.8422 14.8509 15.8122C14.8449 15.7822 14.8513 15.7381 14.8654 15.7142C14.8791 15.6902 14.9083 15.6576 14.93 15.6415C14.9518 15.6255 15.0774 15.5652 15.2086 15.5073C15.3398 15.4495 15.5364 15.3858 15.6457 15.3656C15.7549 15.3456 15.9209 15.3244 16.0143 15.3184C16.1078 15.3123 16.2657 15.3157 16.3648 15.3257C16.4643 15.3357 16.6367 15.3698 16.7482 15.4018C16.8815 15.4433 17.01 15.4992 17.1312 15.5687C17.2307 15.6286 17.3606 15.7202 17.4205 15.772C17.48 15.8241 17.5436 15.8892 17.5614 15.9173C17.5792 15.9454 17.5857 15.9828 17.5759 16.0007C17.5658 16.0186 17.5285 16.0365 17.4926 16.0405H17.4346C17.3633 16.0086 17.246 15.9547 17.1743 15.9208C17.103 15.8867 16.9109 15.8199 16.748 15.772L16.6164 15.7383ZM19.8674 10.1797C19.8415 10.2217 19.7715 10.3899 19.712 10.5534C19.6521 10.7172 19.5727 10.944 19.5348 11.0578C19.4816 11.2113 19.4226 11.3626 19.3578 11.5115C19.2979 11.6472 19.1696 11.8904 19.072 12.0523C18.9748 12.214 18.8235 12.4606 18.7361 12.6002C18.6486 12.7399 18.494 12.9784 18.3929 13.1301C18.2913 13.2818 18.1873 13.4418 18.1614 13.4857C18.1355 13.5296 18.1112 13.5885 18.1071 13.6164C18.1029 13.6443 18.1112 13.6769 18.1253 13.689C18.139 13.7011 18.173 13.6961 18.201 13.6782C18.2289 13.6603 18.3152 13.5849 18.3929 13.5111C18.4702 13.4374 18.5989 13.3001 18.6782 13.2062C18.7576 13.1124 18.8977 12.9426 18.9891 12.8287C19.0805 12.7149 19.2266 12.5205 19.3145 12.3967C19.4019 12.2729 19.5319 12.0754 19.6036 11.9576C19.6753 11.8399 19.7744 11.6326 19.8241 11.4967C19.8734 11.361 19.9404 11.1357 19.9723 10.9958C20.0038 10.856 20.0367 10.6683 20.0448 10.5784C20.0525 10.4885 20.0575 10.3611 20.0554 10.2954C20.0533 10.2296 20.0502 10.1576 20.0481 10.1356C20.0451 10.1115 20.0351 10.0888 20.0193 10.0704C20.0052 10.0565 19.976 10.058 19.9542 10.0742C19.9323 10.0904 19.8933 10.1376 19.8674 10.1797ZM20.0662 7.90458C20.2089 7.82072 20.3588 7.72437 20.3986 7.69045C20.4382 7.65633 20.4597 7.68255 20.4456 7.74831C20.4319 7.81427 20.3812 7.92373 20.3339 7.99157C20.2862 8.05941 20.2112 8.12808 20.1675 8.14389C20.1238 8.15971 20.049 8.17615 20.0011 8.18031C19.9534 8.18426 19.8589 8.18593 19.7914 8.18385C19.7238 8.18177 19.5789 8.1801 19.4695 8.1801C19.3601 8.1801 19.2529 8.17844 19.2312 8.17656C19.2094 8.17448 19.1895 8.1647 19.1879 8.15492C19.1858 8.14493 19.3288 8.10082 19.5056 8.05691C19.6823 8.013 19.8521 7.97326 19.9435 7.94121C19.9435 7.94121 19.9897 7.93392 20.0284 7.91769L20.0662 7.90458ZM19.2996 7.792C19.2919 7.80199 19.3551 7.80366 19.4409 7.79554C19.5263 7.78743 19.6401 7.76475 19.6939 7.74477C19.7474 7.72479 19.8481 7.67755 19.9178 7.63968C19.9874 7.6016 20.0672 7.52814 20.095 7.47633C20.1227 7.42451 20.1536 7.3394 20.1638 7.28758C20.1735 7.23577 20.1832 7.17376 20.1853 7.14982C20.1874 7.12589 20.1824 7.103 20.1748 7.09905C20.1667 7.09489 20.1505 7.11299 20.1383 7.1388C20.1265 7.16481 20.0564 7.24492 19.9828 7.31651C19.9093 7.38851 19.7972 7.48319 19.7335 7.5271C19.6699 7.57101 19.5708 7.63136 19.513 7.66153C19.4556 7.6915 19.3872 7.72895 19.3613 7.74498C19.3354 7.761 19.3076 7.78202 19.2996 7.792ZM17.7745 7.509C17.7782 7.52648 17.8429 7.54978 17.9262 7.55977C18.0095 7.56976 18.122 7.57455 18.1755 7.57059C18.2294 7.56664 18.3268 7.54541 18.3925 7.52335C18.4582 7.5013 18.5556 7.43762 18.6094 7.38185C18.6629 7.32587 18.7458 7.22141 18.7937 7.14962C18.8413 7.07762 18.9276 6.97169 18.9856 6.91364C19.043 6.85579 19.1164 6.78379 19.1479 6.75382C19.1798 6.72385 19.2218 6.67641 19.2422 6.64852C19.2621 6.62064 19.2813 6.57964 19.2855 6.55779C19.2896 6.53594 19.2863 6.51139 19.2782 6.50348C19.2701 6.49537 19.2475 6.49537 19.2277 6.50348C19.2078 6.51139 19.1427 6.55883 19.0832 6.60857C19.0233 6.65851 18.9095 6.75486 18.8302 6.8227C18.7424 6.89709 18.6532 6.96973 18.5626 7.04057C18.495 7.09239 18.3647 7.17251 18.2733 7.21829C18.1819 7.26407 18.0534 7.32462 17.9879 7.35272C17.9224 7.38081 17.8474 7.41993 17.8215 7.4397C17.7956 7.45947 17.7685 7.47882 17.7745 7.509ZM12.7152 6.892C12.7285 6.88575 12.7569 6.85433 12.7784 6.82207C12.7996 6.78982 12.8354 6.743 12.8578 6.71803C12.8802 6.69306 12.9304 6.64915 12.9695 6.62043C13.0114 6.59002 13.0559 6.56335 13.1024 6.54073C13.1359 6.52554 13.1861 6.51014 13.2141 6.5066C13.2416 6.50307 13.2791 6.49058 13.2982 6.47893C13.3206 6.46285 13.339 6.44167 13.3517 6.41712C13.3623 6.39486 13.3703 6.35677 13.3695 6.33264C13.3683 6.3085 13.3569 6.27042 13.3436 6.24815C13.3303 6.22588 13.3011 6.19363 13.2789 6.17656C13.2568 6.1595 13.2135 6.13328 13.1834 6.11809C13.1502 6.1019 13.1147 6.09095 13.0781 6.08563C13.0408 6.08347 13.0033 6.08563 12.9664 6.09208C12.9324 6.09832 12.8794 6.12829 12.8483 6.15867C12.8172 6.18905 12.7753 6.24253 12.7561 6.27728C12.7362 6.31203 12.7094 6.37134 12.6962 6.40901C12.6829 6.44667 12.663 6.5116 12.6524 6.55363C12.6414 6.59637 12.6333 6.63983 12.6282 6.68369C12.6252 6.71829 12.6246 6.75306 12.6265 6.78774C12.6282 6.81542 12.6334 6.84975 12.6379 6.86411C12.6425 6.87847 12.6562 6.89303 12.6686 6.89657C12.6842 6.89997 12.7006 6.89837 12.7152 6.892ZM14.7131 7.10987C14.7098 7.08782 14.7092 7.06546 14.7114 7.04328C14.7131 7.01831 14.724 6.98168 14.7357 6.96192C14.7471 6.94215 14.7769 6.91447 14.802 6.90011C14.8266 6.88575 14.8648 6.86973 14.8861 6.86432C14.9072 6.85891 14.9431 6.85391 14.9655 6.85287C14.9879 6.85183 15.0173 6.85641 15.0318 6.86265C15.0459 6.8689 15.0606 6.88575 15.0641 6.90011C15.0672 6.92232 15.0661 6.94491 15.0608 6.9667C15.0504 6.998 15.0344 7.02718 15.0138 7.05285C14.993 7.07782 14.9586 7.11237 14.9377 7.12922C14.9128 7.14831 14.8856 7.16418 14.8567 7.17646C14.8313 7.18559 14.8039 7.18782 14.7773 7.18291C14.7566 7.1775 14.7348 7.16356 14.7288 7.15211C14.7221 7.13864 14.7168 7.12448 14.7131 7.10987ZM15.032 5.18499C15.0994 5.16308 15.1674 5.14302 15.2359 5.12485C15.3651 5.08775 15.4932 5.04652 15.6198 5.00124C15.7365 4.95828 15.852 4.91221 15.9663 4.86307C16.0706 4.81516 16.1728 4.76252 16.2724 4.70533C16.3692 4.64841 16.4658 4.59097 16.5621 4.53303C16.6357 4.48829 16.7341 4.42316 16.7807 4.38841L16.9183 4.28436C16.9476 4.26209 16.9855 4.23712 17.0025 4.22901C17.0208 4.22051 17.0406 4.21557 17.0607 4.21444C17.0756 4.21444 17.0904 4.2211 17.093 4.22901C17.0953 4.24472 17.0947 4.26072 17.0914 4.27624C17.0843 4.30163 17.0734 4.32577 17.0591 4.34783C17.0345 4.38243 17.0086 4.41603 16.9813 4.44855C16.9525 4.48246 16.898 4.54614 16.8599 4.59005C16.8213 4.63375 16.744 4.70991 16.6883 4.75902C16.6321 4.80813 16.5329 4.87701 16.4682 4.91176C16.4031 4.94652 16.2929 4.99708 16.2237 5.02393C16.154 5.05077 16.0293 5.09093 15.9468 5.11341C15.8639 5.13567 15.7472 5.16273 15.6877 5.17355C15.4948 5.20712 15.3002 5.23046 15.1048 5.24347C15.084 5.2443 15.055 5.24368 15.0401 5.2418C15.0248 5.23993 15.01 5.23265 15.0078 5.22557C15.0064 5.2219 15.0058 5.21797 15.0061 5.21404C15.0063 5.21012 15.0075 5.20631 15.0094 5.20289C15.0155 5.1953 15.0232 5.18918 15.032 5.18499ZM18.4548 4.31849C18.4816 4.32036 18.5411 4.33201 18.5877 4.3445C18.6339 4.35698 18.6973 4.38404 18.7286 4.40464C18.7599 4.42524 18.8063 4.46103 18.8322 4.48434C18.8577 4.50765 18.901 4.56092 18.9278 4.60295C18.9545 4.64499 18.9893 4.70929 19.0055 4.74612C19.0212 4.78275 19.0395 4.8458 19.0459 4.88596C19.0519 4.92612 19.0577 4.9848 19.0587 5.01602C19.0596 5.04723 19.0571 5.09114 19.054 5.11362C19.0496 5.13731 19.0396 5.15958 19.0248 5.17854C19.01 5.19351 18.9931 5.20615 18.9746 5.216C18.9523 5.22439 18.9288 5.22876 18.905 5.2289C18.8807 5.22863 18.8571 5.22125 18.837 5.20768C18.8149 5.18878 18.7938 5.1687 18.7738 5.14754L18.6913 5.06138C18.6636 5.03286 18.6356 5.00469 18.6072 4.9769C18.5856 4.9563 18.5464 4.92425 18.5197 4.90531C18.493 4.88638 18.4449 4.85953 18.4128 4.84517C18.3799 4.83059 18.3458 4.81916 18.3108 4.81105C18.2846 4.80648 18.258 4.80488 18.2314 4.80626C18.2072 4.8094 18.1837 4.81657 18.1618 4.82749C18.1415 4.83788 18.1203 4.84658 18.0986 4.8535C18.0824 4.85787 18.0511 4.86161 18.029 4.86161C18.0068 4.86161 17.973 4.85495 17.9546 4.84705C17.9355 4.83893 17.9133 4.82083 17.9044 4.80647C17.8955 4.79211 17.8866 4.76943 17.8849 4.75611C17.8811 4.70539 17.8918 4.65463 17.9158 4.60982C17.9272 4.58922 17.9535 4.55405 17.974 4.53178C17.9943 4.50952 18.0331 4.47518 18.0598 4.45541C18.0866 4.43564 18.1342 4.40568 18.1668 4.38882C18.1987 4.37176 18.2461 4.35137 18.2721 4.34325C18.2975 4.33513 18.3384 4.32577 18.3628 4.32202C18.3864 4.31807 18.4281 4.31661 18.4548 4.31849ZM19.271 4.37696C19.2807 4.35573 19.2641 4.3214 19.2565 4.30538C19.2394 4.27355 19.2215 4.24212 19.203 4.21111C19.1777 4.17018 19.1496 4.1311 19.1188 4.09416C19.0904 4.06287 19.057 4.03651 19.02 4.01613C18.9808 3.99846 18.9402 3.98433 18.8985 3.97388C18.8565 3.96439 18.8137 3.95895 18.7707 3.95765C18.7375 3.95765 18.6888 3.95911 18.6623 3.96098C18.6358 3.96285 18.602 3.96868 18.5879 3.97388C18.5724 3.97981 18.5586 3.98929 18.5475 4.00156C18.5388 4.01295 18.5332 4.02644 18.5313 4.04068C18.5312 4.04771 18.5326 4.05469 18.5354 4.06114C18.5382 4.0676 18.5423 4.07339 18.5475 4.07814C18.5572 4.08708 18.5985 4.09583 18.6397 4.0977C18.6805 4.09957 18.74 4.10893 18.7725 4.11892C18.8045 4.1287 18.8532 4.14702 18.8809 4.1595C18.9085 4.17199 18.9549 4.20195 18.9846 4.22609C19.0138 4.25023 19.0567 4.28977 19.0801 4.31391C19.1031 4.33805 19.1344 4.36884 19.1497 4.38216C19.1657 4.39607 19.1854 4.40509 19.2063 4.40817C19.2061 4.40776 19.2515 4.4192 19.271 4.37696ZM10.7504 38.559C10.7678 38.5542 10.8115 38.5332 10.848 38.5126C10.8898 38.4884 10.93 38.4614 10.9682 38.4317C10.9984 38.4086 11.0272 38.3703 11.0322 38.3476C11.0374 38.3249 11.033 38.2966 11.0229 38.2848C11.0123 38.2727 10.9833 38.2598 10.9578 38.2554C10.9327 38.2515 10.8797 38.2465 10.8409 38.2444C10.8022 38.2423 10.7276 38.2486 10.6753 38.2573C10.6231 38.2662 10.562 38.2908 10.5398 38.3118C10.5172 38.3328 10.4965 38.3678 10.4932 38.3894C10.4911 38.4157 10.4958 38.4421 10.5069 38.466C10.5174 38.4868 10.5566 38.5147 10.5943 38.5291C10.6316 38.543 10.6749 38.5578 10.6911 38.5613C10.7108 38.5651 10.731 38.5643 10.7504 38.559Z" fill="white"/>
<path d="M14.2922 38.2217C14.4067 38.2217 14.4994 38.1809 14.4994 38.1306C14.4994 38.0802 14.4067 38.0394 14.2922 38.0394C14.1777 38.0394 14.085 38.0802 14.085 38.1306C14.085 38.1809 14.1777 38.2217 14.2922 38.2217Z" fill="white"/>
<path d="M20.0003 37.6274C20.0339 37.6871 19.9785 37.7826 19.8763 37.8407C19.774 37.8992 19.6105 37.9364 19.5765 37.8769C19.5425 37.8172 19.6513 37.6832 19.7541 37.6249C19.8562 37.5666 19.9663 37.5681 20.0003 37.6274ZM15.5454 38.0852C15.5862 38.074 15.7012 38.0787 15.8011 38.0956L16.1412 38.1537C16.2282 38.1684 16.3785 38.1857 16.4747 38.1913C16.5706 38.1967 16.7482 38.2078 16.8697 38.2153C16.9907 38.2225 17.1772 38.2259 17.2841 38.2219C17.3911 38.218 17.538 38.2136 17.6112 38.2117C17.6841 38.2096 17.7878 38.2082 17.841 38.2082C17.8943 38.2082 17.9583 38.2096 17.9836 38.2117C18.0083 38.2136 18.0375 38.2275 18.0483 38.2423C18.0588 38.2573 18.0615 38.2912 18.0547 38.3174C18.0504 38.3314 18.0432 38.3444 18.0338 38.3556C18.0243 38.3667 18.0126 38.3758 17.9996 38.3824C17.9497 38.399 17.8989 38.4127 17.8474 38.4233C17.7867 38.4365 17.6528 38.4521 17.5494 38.4575C17.4458 38.4629 17.2754 38.4706 17.1706 38.4745C17.0378 38.4786 16.905 38.4797 16.7723 38.4781C16.6581 38.476 16.4805 38.4716 16.3773 38.4677C16.2736 38.4637 16.125 38.4469 16.0469 38.43C15.953 38.409 15.8601 38.3839 15.7684 38.3549C15.6936 38.3305 15.5988 38.2827 15.5578 38.249C15.5166 38.2152 15.4801 38.1691 15.4768 38.1464C15.4737 38.1243 15.5041 38.0966 15.5454 38.0852Z" fill="white"/>
<path d="M19.3831 44.5637C19.5051 44.4655 19.567 44.3396 19.5213 44.2825C19.4757 44.2253 19.3399 44.2587 19.2179 44.3569C19.0959 44.4551 19.034 44.5811 19.0797 44.6382C19.1253 44.6953 19.2611 44.6619 19.3831 44.5637Z" fill="white"/>
<path d="M17.0154 46.4852C17.0304 46.4643 17.072 46.4165 17.1077 46.3786C17.1437 46.3405 17.202 46.2912 17.238 46.2685C17.2737 46.2458 17.3213 46.2225 17.3441 46.2169C17.3702 46.2115 17.3972 46.2128 17.4227 46.2207C17.4438 46.2282 17.4805 46.2575 17.5047 46.2858C17.5294 46.3143 17.5541 46.3591 17.5599 46.3855C17.5655 46.4119 17.5607 46.4458 17.5493 46.461C17.5379 46.476 17.5103 46.4914 17.4877 46.4954L17.3885 46.5126C17.3564 46.5182 17.3253 46.5286 17.2963 46.5434C17.2772 46.5547 17.2525 46.5825 17.2411 46.6052C17.2297 46.6279 17.2194 46.6774 17.2173 46.7153C17.2152 46.7532 17.2092 46.7977 17.2036 46.815C17.198 46.8323 17.181 46.8551 17.1659 46.8666C17.151 46.8778 17.1201 46.8934 17.0975 46.9009C17.0749 46.9084 17.0331 46.9101 17.0053 46.9045C16.9769 46.8988 16.9412 46.8818 16.9263 46.8666C16.9114 46.8514 16.8944 46.8175 16.8886 46.7911C16.8828 46.7593 16.8816 46.7268 16.8853 46.6947C16.889 46.6683 16.9137 46.6188 16.94 46.5846C16.9663 46.5509 17.0005 46.506 17.0154 46.4852ZM21.5966 42.8173C21.067 43.3383 20.5923 43.6959 20.5386 43.6571C20.412 43.5666 20.8838 43.149 21.4138 42.6285C21.9433 42.1077 22.3157 41.7516 22.456 41.7714C22.6272 41.7953 22.1261 42.2968 21.5966 42.8173ZM24.058 41.1382C24.1336 41.2314 23.9761 41.3843 23.9046 41.4193C23.8707 41.4332 23.8327 41.4336 23.7985 41.4204C23.7643 41.4073 23.7363 41.3815 23.7203 41.3484C23.7043 41.3153 23.7015 41.2773 23.7124 41.2421C23.7233 41.207 23.7471 41.1773 23.779 41.1592C23.8507 41.1244 23.9759 41.037 24.058 41.1382ZM21.1723 33.7296C21.2614 33.6226 21.3358 33.5371 21.3698 33.515C21.4034 33.4928 21.4471 33.4732 21.467 33.4713C21.4774 33.4707 21.4878 33.4726 21.4973 33.4766C21.5069 33.4807 21.5154 33.4869 21.5222 33.4948C21.5327 33.5094 21.5429 33.5489 21.5447 33.582C21.5464 33.6151 21.5261 33.6904 21.4994 33.7498C21.4726 33.8091 21.4335 33.9052 21.4119 33.9643C21.3903 34.0234 21.3541 34.1335 21.3309 34.2092C21.3079 34.285 21.2842 34.4344 21.2791 34.5413C21.2738 34.6475 21.2706 34.7537 21.2693 34.8599C21.2693 34.9284 21.2749 35.0445 21.2822 35.1182C21.289 35.1921 21.2923 35.284 21.2886 35.3227C21.2849 35.3614 21.2704 35.4097 21.2563 35.4301C21.2422 35.4505 21.2185 35.4597 21.2045 35.4503C21.1904 35.4411 21.164 35.4064 21.1462 35.3733C21.1284 35.3402 21.0932 35.242 21.0685 35.1552C21.0381 35.0447 21.0133 34.9328 20.9941 34.8198C20.9763 34.6999 20.9676 34.5789 20.9682 34.4577C20.9699 34.3561 20.9844 34.2157 21.0005 34.1458C21.0163 34.0756 21.0167 33.9778 21.1462 33.7633L21.1723 33.7296ZM27.5641 30.9621C27.59 30.933 27.6333 30.9061 27.6593 30.9014C27.6915 30.8976 27.7242 30.902 27.7544 30.9143C27.7803 30.9263 27.819 30.9615 27.8406 30.9923C27.8621 31.0233 27.8891 31.078 27.9009 31.1138C27.9131 31.1496 27.9264 31.2374 27.9312 31.309C27.9359 31.3806 27.9324 31.5052 27.9227 31.5864C27.9129 31.6676 27.8934 31.7943 27.8793 31.8682C27.8558 31.9741 27.8255 32.0783 27.7886 32.1803C27.7547 32.2736 27.7187 32.3661 27.6806 32.4577C27.6572 32.5126 27.6313 32.5671 27.5944 32.6009C27.5587 32.6331 27.5239 32.6462 27.4908 32.6485C27.4576 32.6508 27.4147 32.6391 27.3956 32.6225C27.377 32.6056 27.3561 32.59 27.3482 32.5401C27.3432 32.4995 27.3461 32.4583 27.3567 32.4188C27.3689 32.3805 27.394 32.3045 27.4128 32.2498C27.4317 32.1951 27.4609 32.1012 27.4775 32.0417C27.4941 31.9822 27.5078 31.8867 27.5078 31.8292V31.6212C27.5078 31.5639 27.5001 31.4488 27.4903 31.3654C27.481 31.282 27.4839 31.1906 27.4818 31.1617C27.4825 31.1615 27.4694 31.0684 27.5641 30.9621ZM17.8301 28.4537C17.8175 28.4492 17.7261 28.3998 17.6285 28.3374C17.5309 28.275 17.284 28.0966 17.0801 27.9408C16.8762 27.7849 16.4515 27.4355 16.1361 27.1646C15.8211 26.8934 15.3113 26.4032 15.0031 26.075C14.6956 25.747 14.2591 25.2235 14.034 24.9115C13.809 24.5996 13.5932 24.2779 13.5545 24.1965C13.5159 24.1152 13.4739 24.0043 13.4614 23.9499V23.9402V23.9304C13.4703 23.8925 13.4902 23.8563 13.5056 23.8498C13.5209 23.8436 13.5505 23.8457 13.5711 23.8548C13.5916 23.864 13.6241 23.8815 13.6432 23.8942C13.6622 23.9069 13.7172 23.968 13.7663 24.0305C13.8152 24.0927 13.982 24.286 14.137 24.4596C14.2925 24.6331 14.6916 25.0851 15.0242 25.4636C15.3567 25.8419 16.075 26.5873 16.6206 27.1201C16.9864 27.4784 17.3535 27.8352 17.7219 28.1907C17.7822 28.2467 17.8425 28.3066 17.8562 28.3237C17.8695 28.3409 17.8865 28.3668 17.8939 28.3813C17.9013 28.3966 17.9036 28.4138 17.9004 28.4304C17.9006 28.4302 17.8832 28.4729 17.8301 28.4537ZM21.9124 28.4207C21.8886 28.4046 21.8542 28.3441 21.8363 28.286C21.8123 28.2134 21.8023 28.1368 21.8071 28.0604C21.81 27.9943 21.8386 27.8598 21.8722 27.7616C21.9062 27.6636 21.9698 27.531 22.0139 27.467C22.0577 27.4027 22.1362 27.3128 22.188 27.2666C22.2398 27.2204 22.3345 27.1615 22.3982 27.1355C22.4622 27.1094 22.56 27.0799 22.616 27.0699C22.6719 27.0599 22.7523 27.0647 22.7973 27.0664C22.8618 27.0691 22.8966 27.0907 22.9204 27.1028C22.933 27.11 22.9438 27.1199 22.952 27.1319C22.9603 27.1438 22.9657 27.1575 22.9679 27.1719C22.97 27.1979 22.955 27.2405 22.9351 27.2666C22.9152 27.2926 22.8647 27.3369 22.8226 27.365C22.7615 27.4043 22.6985 27.4408 22.634 27.4742C22.5728 27.5058 22.5135 27.5411 22.4564 27.5797C22.4208 27.6058 22.3605 27.6696 22.3225 27.7219C22.2848 27.7739 22.2342 27.8671 22.2104 27.9291C22.1866 27.9914 22.1538 28.0912 22.1375 28.1514C22.1222 28.2102 22.1016 28.2674 22.0759 28.3224C22.0581 28.3563 22.0237 28.3988 21.9999 28.4169C21.976 28.435 21.9362 28.4367 21.9124 28.4207ZM22.8972 24.3378C20.6175 22.4822 20.4584 20.6086 20.4553 20.3012C20.4553 20.27 20.4569 20.26 20.4565 20.26C20.4587 20.2142 20.4431 20.1694 20.4131 20.1349C20.383 20.1004 20.3408 20.079 20.2953 20.0752C20.2498 20.0713 20.2046 20.0854 20.1692 20.1144C20.1339 20.1433 20.1111 20.1849 20.1056 20.2305H20.1052C20.1034 20.254 20.1025 20.2776 20.1027 20.3012C20.0994 20.6874 20.2808 22.8119 22.731 24.4234C22.731 24.4234 22.8703 24.5232 22.9188 24.4614C22.9186 24.4614 22.9664 24.4094 22.8972 24.3378ZM33.3928 24.9823C33.3908 25.0187 33.3924 25.166 33.397 25.3096C33.4018 25.4532 33.4055 25.705 33.4055 25.869V26.4864C33.4055 26.6618 33.3833 26.9265 33.3557 27.0747C33.323 27.2465 33.2817 27.4166 33.2322 27.5843C33.1857 27.7327 33.1333 27.8792 33.0751 28.0234C33.0298 28.1326 32.9408 28.3099 32.8772 28.4171C32.8136 28.5243 32.6837 28.7012 32.5881 28.8106C32.4673 28.9473 32.3421 29.08 32.2128 29.2085C32.1022 29.3172 31.9947 29.4292 31.8905 29.5442C31.825 29.6191 31.7504 29.7294 31.7258 29.7885C31.7007 29.8478 31.6804 29.9206 31.6804 29.9501C31.6804 29.9797 31.7042 30.0151 31.7339 30.0288C31.7635 30.0425 31.8157 30.0407 31.8497 30.0244C31.8837 30.0086 31.9542 29.9676 32.0064 29.9333C32.2515 29.7607 32.4819 29.5681 32.6953 29.3573C32.8118 29.2393 32.9247 29.1177 33.0337 28.9927C33.1353 28.8713 33.2277 28.7425 33.3102 28.6073C33.3849 28.4793 33.4537 28.3479 33.5166 28.2136C33.5642 28.1087 33.6274 27.9241 33.6571 27.8032C33.6867 27.6825 33.7199 27.498 33.7311 27.3931C33.7423 27.2882 33.7574 27.1149 33.7642 27.0077C33.7711 26.9003 33.7748 26.7047 33.7723 26.5724C33.7681 26.4104 33.7572 26.2487 33.7396 26.0877C33.7234 25.9533 33.6919 25.7387 33.6691 25.6112C33.6463 25.4836 33.6148 25.3044 33.599 25.2135C33.5873 25.141 33.5721 25.0692 33.5537 24.9981C33.5448 24.9706 33.5168 24.9353 33.4917 24.9192C33.4666 24.9032 33.4351 24.8959 33.4216 24.9028C33.4082 24.9103 33.3953 24.9459 33.3928 24.9823ZM22.6454 10.1893C22.6632 10.1645 22.7142 10.1262 22.7588 10.1037C22.8037 10.0813 22.8781 10.0629 22.9252 10.0629C22.9722 10.0629 23.0377 10.0667 23.0713 10.0711C23.1049 10.0754 23.1579 10.0956 23.189 10.1158C23.2201 10.136 23.2711 10.1818 23.3028 10.2178C23.3339 10.2536 23.3813 10.3141 23.4085 10.3522C23.4352 10.3903 23.468 10.4398 23.4814 10.4623C23.4949 10.4847 23.5057 10.5195 23.5057 10.5397C23.5057 10.5599 23.493 10.5836 23.4773 10.5928C23.4615 10.6017 23.4178 10.6054 23.3797 10.6009C23.3415 10.5963 23.2632 10.5798 23.2052 10.5642C23.1471 10.5486 23.0392 10.5118 22.966 10.4827C22.8924 10.4535 22.7936 10.4059 22.7465 10.3767C22.6995 10.3476 22.6506 10.3035 22.6373 10.2789C22.6234 10.2544 22.6272 10.214 22.6454 10.1893ZM22.7074 9.14067C22.7235 9.11694 22.7706 9.08011 22.811 9.05868C22.8518 9.03703 22.9198 9.01955 22.9627 9.01955C23.0056 9.01955 23.0655 9.02309 23.096 9.02746C23.1266 9.03183 23.1749 9.05098 23.2033 9.07033C23.2321 9.08968 23.2785 9.13359 23.3073 9.16813C23.3357 9.20247 23.3791 9.26032 23.4037 9.29694C23.428 9.33336 23.458 9.38081 23.47 9.40245C23.4827 9.42388 23.4922 9.45718 23.4922 9.47653C23.4922 9.49588 23.4808 9.51877 23.4663 9.5273C23.4522 9.53604 23.412 9.53937 23.3776 9.53521C23.3237 9.52677 23.2705 9.51503 23.218 9.50004C23.1654 9.48485 23.0667 9.44969 22.9998 9.4218C22.9307 9.39308 22.8639 9.3592 22.7998 9.32046C22.7569 9.29257 22.7119 9.25033 22.6999 9.22682C22.694 9.21295 22.6915 9.19783 22.6929 9.1828C22.6942 9.16776 22.6991 9.15329 22.7074 9.14067ZM22.564 11.1971C22.5781 11.174 22.6199 11.1367 22.6566 11.1144C22.7001 11.0902 22.7481 11.075 22.7975 11.0697C22.8379 11.0674 22.8943 11.0676 22.9233 11.0699C22.9521 11.0724 22.9986 11.0878 23.0261 11.1045C23.0541 11.1213 23.1001 11.16 23.1289 11.191C23.1577 11.2216 23.2014 11.2738 23.2261 11.3071C23.2512 11.34 23.2816 11.3833 23.2945 11.4027C23.3071 11.4222 23.3179 11.453 23.3192 11.4713C23.3204 11.4896 23.3107 11.5115 23.2974 11.5204C23.2848 11.5292 23.2472 11.5346 23.2145 11.5325C23.1818 11.5304 23.1134 11.5194 23.0632 11.508C22.9925 11.4907 22.9226 11.47 22.8539 11.4459C22.7874 11.4225 22.7227 11.3942 22.6603 11.3612C22.6187 11.3371 22.5741 11.3001 22.5615 11.2784C22.5551 11.2657 22.5521 11.2516 22.5525 11.2374C22.5529 11.2232 22.5569 11.2094 22.564 11.1971ZM22.541 12.0862C22.5532 12.0669 22.589 12.0353 22.6208 12.0165C22.658 11.996 22.6991 11.9831 22.7414 11.9787C22.7766 11.9768 22.8247 11.9768 22.8493 11.9787C22.8744 11.9807 22.914 11.9939 22.938 12.0078C22.9619 12.0219 23.0013 12.0546 23.0259 12.0808C23.0506 12.1066 23.0883 12.1508 23.1092 12.1788C23.1308 12.2065 23.1569 12.2432 23.1679 12.2596C23.1789 12.276 23.1882 12.302 23.189 12.3174C23.1898 12.3328 23.1818 12.3514 23.1704 12.3589C23.1594 12.3663 23.127 12.3709 23.0991 12.369C23.0552 12.3649 23.0117 12.358 22.9687 12.3484C22.9082 12.3339 22.8484 12.3164 22.7894 12.2962C22.7324 12.2765 22.677 12.2527 22.6234 12.2248C22.5878 12.2044 22.5495 12.173 22.5389 12.1549C22.5333 12.1443 22.5306 12.1323 22.5309 12.1203C22.5313 12.1083 22.5347 12.0965 22.541 12.0862ZM22.4402 12.9542C22.4508 12.9376 22.4823 12.9107 22.5095 12.8945C22.5379 12.8783 22.5851 12.8637 22.6152 12.862C22.6454 12.8604 22.6877 12.8604 22.709 12.862C22.7308 12.8637 22.7652 12.8749 22.7859 12.887C22.8071 12.8991 22.8415 12.927 22.8628 12.9492C22.8844 12.9713 22.9171 13.0087 22.9353 13.0329C22.953 13.0553 22.97 13.0783 22.9863 13.1018C22.9962 13.1166 23.0024 13.1336 23.0046 13.1513C23.0054 13.1644 22.9986 13.1802 22.9888 13.1867C22.9787 13.1931 22.9507 13.1971 22.9264 13.1954C22.8883 13.1919 22.8505 13.1861 22.8131 13.1779C22.7604 13.1655 22.7082 13.1507 22.6568 13.1336C22.6073 13.1168 22.559 13.0965 22.5124 13.0728C22.4813 13.0556 22.4477 13.0287 22.4384 13.0131C22.4336 13.0039 22.4313 12.9937 22.4316 12.9834C22.432 12.9731 22.4349 12.963 22.4402 12.9542ZM22.2763 13.7321C22.2932 13.7097 22.3141 13.6906 22.3379 13.6759C22.3629 13.6607 22.4046 13.6472 22.4309 13.6455C22.4588 13.644 22.4868 13.6441 22.5146 13.6457C22.5337 13.6474 22.5644 13.658 22.5826 13.6694C22.6013 13.6809 22.6319 13.7073 22.651 13.7285C22.6701 13.7493 22.6991 13.7849 22.7155 13.8076C22.732 13.8299 22.7524 13.8594 22.7608 13.8727C22.7693 13.8861 22.777 13.9069 22.7774 13.9196C22.7783 13.932 22.7722 13.9468 22.7633 13.9529C22.7548 13.9589 22.7298 13.9624 22.7082 13.961C22.6743 13.9576 22.6407 13.952 22.6075 13.9441C22.5607 13.9322 22.5145 13.918 22.469 13.9017C22.425 13.8855 22.3821 13.8663 22.3408 13.844C22.3132 13.8274 22.2834 13.802 22.2753 13.7874C22.271 13.7788 22.2689 13.7693 22.269 13.7596C22.2692 13.75 22.2717 13.7405 22.2763 13.7321ZM22.0937 14.399C22.11 14.3771 22.1301 14.3585 22.1532 14.3441C22.1775 14.3293 22.2179 14.316 22.2432 14.3145C22.2701 14.3131 22.2972 14.3132 22.3242 14.3147C22.3428 14.3164 22.3723 14.3268 22.3901 14.338C22.4079 14.3493 22.4375 14.3751 22.456 14.3959C22.4742 14.4163 22.5026 14.451 22.5184 14.4733C22.5345 14.4952 22.554 14.5239 22.5625 14.537C22.571 14.5509 22.5764 14.5665 22.5783 14.5828C22.5791 14.595 22.5731 14.6096 22.565 14.6154C22.5481 14.6226 22.5297 14.6253 22.5115 14.6233C22.4787 14.62 22.446 14.6145 22.4139 14.6067C22.382 14.599 22.3213 14.5805 22.28 14.5651C22.2388 14.5497 22.1824 14.5245 22.1561 14.5087C22.1294 14.4924 22.1006 14.4677 22.0925 14.4533C22.0885 14.4448 22.0865 14.4354 22.0868 14.426C22.087 14.4166 22.0894 14.4074 22.0937 14.399ZM21.9225 15.1415C21.9358 15.1243 21.9521 15.1096 21.9706 15.0982C21.9933 15.0855 22.0182 15.0775 22.044 15.0747C22.0658 15.0736 22.0877 15.0737 22.1095 15.0749C22.1244 15.0764 22.148 15.0845 22.1625 15.0932C22.177 15.102 22.2011 15.1226 22.216 15.1388C22.2309 15.1548 22.2541 15.1821 22.2666 15.1998C22.2794 15.217 22.2958 15.2397 22.3022 15.2499C22.3086 15.2603 22.3149 15.2763 22.3151 15.2861C22.3153 15.2959 22.3107 15.3073 22.3041 15.3119C22.2904 15.3178 22.2755 15.32 22.2608 15.3182C22.2342 15.3156 22.2078 15.3113 22.1818 15.3053C22.1452 15.2962 22.109 15.2853 22.0734 15.2726C22.0388 15.2602 22.0052 15.2453 21.9727 15.2281C21.953 15.217 21.9355 15.2022 21.9213 15.1846C21.918 15.1778 21.9164 15.1704 21.9166 15.1629C21.9169 15.1554 21.9189 15.148 21.9225 15.1415ZM21.6739 15.8569C21.6857 15.8423 21.7001 15.8299 21.7163 15.8205C21.7364 15.8098 21.7584 15.803 21.781 15.8005C21.8001 15.7995 21.8256 15.7995 21.8388 15.8005C21.8521 15.8016 21.8728 15.8084 21.8859 15.8157C21.8987 15.8232 21.9199 15.8403 21.9333 15.854C21.961 15.8831 21.9863 15.9143 22.009 15.9474C22.0146 15.9562 22.02 15.9695 22.0204 15.9778C22.0208 15.9862 22.0162 15.9955 22.0106 15.9995C21.9984 16.0044 21.9852 16.0063 21.9721 16.0049C21.9567 16.004 21.9254 15.9993 21.9024 15.9943C21.8794 15.9893 21.8361 15.977 21.8065 15.967C21.7769 15.957 21.7369 15.9404 21.7178 15.9298C21.6987 15.9191 21.6786 15.9027 21.6724 15.8933C21.6697 15.8876 21.6685 15.8813 21.6687 15.875C21.669 15.8686 21.6707 15.8624 21.6739 15.8569ZM21.3918 16.5316C21.4039 16.517 21.4184 16.5047 21.4347 16.4952C21.4548 16.4844 21.4767 16.4776 21.4994 16.4752C21.518 16.4741 21.5439 16.4741 21.5572 16.4752C21.5736 16.4774 21.5896 16.4825 21.6042 16.4904C21.6171 16.4979 21.6382 16.5149 21.6513 16.5287C21.6645 16.542 21.6844 16.5651 21.6958 16.5798C21.7076 16.5942 21.7213 16.6134 21.7269 16.6221C21.7332 16.6312 21.7372 16.6416 21.7387 16.6525C21.7387 16.6606 21.7346 16.6702 21.7286 16.6741C21.7226 16.6781 21.7052 16.6806 21.6904 16.6795C21.6751 16.6787 21.6434 16.6739 21.6204 16.6689C21.5974 16.6639 21.5545 16.6516 21.5248 16.6416C21.4952 16.6317 21.4552 16.615 21.4361 16.6044C21.4188 16.5954 21.4033 16.583 21.3908 16.568C21.388 16.5623 21.3867 16.556 21.3869 16.5496C21.387 16.5433 21.3887 16.5371 21.3918 16.5316ZM22.7248 8.11746C22.7401 8.09416 22.7855 8.05711 22.8247 8.03547C22.8643 8.01383 22.9312 7.99552 22.9729 7.99489C23.0149 7.99427 23.0736 7.99677 23.1036 8.00051C23.1337 8.00426 23.1813 8.02236 23.2093 8.04088C23.2381 8.0592 23.2841 8.10165 23.3129 8.13494C23.3729 8.2063 23.4273 8.2822 23.4756 8.36197C23.4886 8.38409 23.4966 8.40882 23.499 8.43439C23.499 8.45333 23.4881 8.4758 23.4744 8.48454C23.4603 8.49328 23.4213 8.49724 23.3873 8.49349C23.3345 8.48615 23.2822 8.47545 23.2307 8.46144C23.1578 8.44044 23.0859 8.41599 23.0153 8.38819C22.9474 8.36109 22.8815 8.32895 22.8183 8.29205C22.7758 8.26542 22.7312 8.22484 22.7188 8.20195C22.7127 8.18848 22.7101 8.17369 22.7111 8.15894C22.7122 8.14419 22.7169 8.12993 22.7248 8.11746ZM22.6713 7.27385C22.6854 7.25179 22.7269 7.21579 22.7627 7.19456C22.7996 7.17313 22.8612 7.15419 22.9003 7.15211C22.9395 7.15024 22.995 7.15086 23.023 7.15336C23.0514 7.15586 23.0964 7.17126 23.1233 7.1879C23.1509 7.20413 23.1954 7.24222 23.2228 7.27239C23.2504 7.30256 23.2928 7.35334 23.3167 7.38559C23.3409 7.41785 23.3706 7.45968 23.3822 7.47903C23.3951 7.49917 23.4032 7.52202 23.406 7.54583C23.4068 7.56351 23.3971 7.58474 23.3844 7.59327C23.3716 7.6018 23.3351 7.60659 23.303 7.6043C23.2709 7.60201 23.2046 7.59077 23.1552 7.57912C23.0864 7.56172 23.0183 7.54116 22.9513 7.51753C22.8868 7.4943 22.824 7.46634 22.7635 7.43387C22.7231 7.41015 22.6798 7.37394 22.6676 7.35292C22.6618 7.34042 22.6591 7.32669 22.6598 7.31292C22.6604 7.29915 22.6644 7.28574 22.6713 7.27385ZM22.6494 6.43085C22.6603 6.41004 22.6939 6.37508 22.7242 6.35344C22.7548 6.33159 22.8079 6.30974 22.8423 6.30475C22.8771 6.30017 22.9264 6.29601 22.9511 6.2958C22.9766 6.2958 23.0174 6.30579 23.0429 6.31807C23.0684 6.32993 23.1109 6.35989 23.1376 6.38424C23.1644 6.40838 23.206 6.44979 23.2298 6.47622C23.2537 6.50244 23.2837 6.53719 23.2953 6.55301C23.3082 6.56986 23.3173 6.58931 23.3221 6.61002C23.3241 6.62542 23.3173 6.64498 23.3067 6.65331C23.2962 6.66205 23.2642 6.66912 23.2354 6.66975C23.191 6.66915 23.1466 6.66581 23.1026 6.65976C23.0402 6.65031 22.9783 6.63774 22.9171 6.62209C22.858 6.60701 22.8001 6.58753 22.7439 6.56383C22.7061 6.54614 22.6649 6.51784 22.6529 6.50036C22.6467 6.48994 22.6431 6.47816 22.6425 6.46605C22.6419 6.45393 22.6442 6.44185 22.6494 6.43085ZM22.0556 4.04213C22.0674 4.02216 22.1014 3.98928 22.1317 3.96951C22.1623 3.94974 22.2146 3.93122 22.2481 3.92851C22.2817 3.92602 22.3292 3.92498 22.3534 3.92664C22.3777 3.92831 22.4166 3.941 22.4404 3.95515C22.4643 3.96847 22.5032 4.00135 22.5275 4.02757C22.5795 4.0836 22.6271 4.14357 22.6699 4.20695C22.6816 4.22474 22.6893 4.24492 22.6925 4.26604C22.6937 4.28165 22.686 4.3008 22.6755 4.3085C22.6645 4.3164 22.6334 4.3216 22.6058 4.32036C22.5783 4.31911 22.5209 4.31078 22.4788 4.30183C22.4367 4.29289 22.3573 4.27083 22.3026 4.2521C22.2465 4.23324 22.192 4.20993 22.1395 4.18239C22.1039 4.1622 22.066 4.1312 22.055 4.11289C22.0495 4.10188 22.0467 4.08973 22.0468 4.07743C22.0469 4.06514 22.0499 4.05304 22.0556 4.04213ZM21.5601 2.99895C21.5723 2.97898 21.6063 2.9461 21.6361 2.92633C21.6672 2.90656 21.7195 2.88804 21.753 2.88533C21.7862 2.88284 21.8341 2.8818 21.8583 2.88346C21.8826 2.88513 21.9215 2.89782 21.9449 2.91197C21.9688 2.92529 22.0081 2.95817 22.0324 2.98439C22.0566 3.01061 22.0944 3.05472 22.1161 3.08282C22.1377 3.1107 22.1642 3.14733 22.1748 3.16377C22.1863 3.18165 22.194 3.20179 22.1974 3.22286C22.1982 3.23847 22.1905 3.25762 22.1799 3.26532C22.169 3.27322 22.1379 3.27843 22.1103 3.27718C22.0827 3.27593 22.0258 3.2676 21.9837 3.25866C21.924 3.24503 21.8651 3.22844 21.8071 3.20892C21.751 3.18998 21.6965 3.16668 21.644 3.13921C21.6084 3.11902 21.5706 3.08802 21.5599 3.06971C21.5544 3.05871 21.5516 3.04659 21.5517 3.0343C21.5517 3.02202 21.5546 3.00992 21.5601 2.99895ZM22.4301 5.14004C22.45 5.14899 22.4921 5.16543 22.5231 5.17667C22.5546 5.1879 22.6276 5.20081 22.6858 5.20538C22.7436 5.20975 22.8498 5.21537 22.921 5.21766C22.9923 5.21995 23.0854 5.22349 23.1279 5.22578C23.1704 5.22807 23.2344 5.23348 23.27 5.23805C23.3061 5.24242 23.3571 5.25533 23.3838 5.26656C23.4106 5.2778 23.4416 5.29986 23.453 5.31547C23.464 5.33128 23.4675 5.35688 23.4611 5.37248C23.4543 5.3883 23.4271 5.40287 23.4 5.40515C23.3733 5.40744 23.3364 5.41119 23.262 5.40932C23.2131 5.40807 23.149 5.40744 23.1202 5.40515C23.091 5.40287 23.0437 5.40099 23.0145 5.40099C22.9853 5.40099 22.936 5.4139 22.9049 5.4295C22.8738 5.44511 22.817 5.47632 22.7791 5.4988C22.7412 5.52127 22.6755 5.5579 22.633 5.58037C22.5905 5.60284 22.5233 5.63031 22.4827 5.64155C22.4427 5.65279 22.3897 5.66923 22.365 5.67818C22.3403 5.68712 22.2966 5.68712 22.2678 5.67818C22.2386 5.66923 22.2058 5.6455 22.1945 5.62532C22.1831 5.60513 22.1741 5.53729 22.1741 5.47445V5.4499C22.1741 5.42534 22.1868 5.35896 22.1996 5.31359C22.2061 5.29008 22.2146 5.2624 22.2146 5.2624C22.2278 5.19956 22.2554 5.14275 22.2757 5.13609C22.2956 5.12922 22.3304 5.12381 22.3526 5.12381C22.3748 5.12381 22.4098 5.13088 22.4301 5.14004Z" fill="white"/>
</g>
<defs>
<clipPath id="clip0_46_116">
<rect width="38" height="60" fill="white"/>
</clipPath>
</defs>
</svg>
