<svg width="42" height="60" viewBox="0 0 42 60" fill="none" xmlns="http://www.w3.org/2000/svg">
<g clip-path="url(#clip0_46_72)">
<path fill-rule="evenodd" clip-rule="evenodd" d="M20.5945 17.6605C20.3551 17.7643 20.1959 17.6125 20.3952 17.4447C20.5069 17.3569 20.6027 17.1411 20.7062 17.0373C20.8736 16.8773 21.1609 17.0934 21.0251 17.3011C20.9212 17.4685 20.7857 17.5727 20.5945 17.6605ZM28.233 27.1165C28.233 27.1165 28.7909 27.4283 28.8225 27.7241C28.854 28.0199 28.9101 28.5155 28.4476 28.4675C27.9855 28.4195 26.7651 28.5475 26.3268 28.7953C25.8806 29.0431 25.5058 28.9152 25.338 28.7313C25.171 28.5475 24.8599 28.4675 24.6284 28.5475C24.3975 28.6353 23.7438 29.0271 23.6243 28.8832C23.5123 28.7313 23.3292 28.4675 23.8552 28.2997C24.3818 28.1397 23.9747 27.9879 23.6077 27.9879H23.2488C23.2488 27.9879 22.8342 28.1081 22.6753 28.2517C22.5075 28.4035 22.1646 28.4995 21.9656 28.2517C21.766 28.0036 21.75 27.3803 22.3802 27.4123C23.0023 27.4443 23.5282 27.0525 23.4087 26.8847C23.2966 26.7169 23.5123 26.5569 23.6719 26.7887C23.8389 27.0208 23.8708 26.9967 24.4851 27.1485C25.0912 27.3003 24.8599 26.9487 25.171 27.2445C25.482 27.5484 25.681 27.4603 25.7852 27.1485C25.8806 26.8367 25.5696 26.2451 25.1869 26.453C24.8121 26.6689 24.5489 26.5249 24.501 26.3571C24.4453 26.1892 24.206 26.0132 24.0549 26.0612C23.9031 26.1092 23.8073 25.7174 24.1187 25.614C24.4297 25.518 24.5173 25.0863 24.3978 24.9423C24.2858 24.7905 24.0549 24.5907 23.6562 24.8705C23.2651 25.1503 22.7551 24.9424 22.5075 24.9267C22.2607 24.9025 21.0407 25.0063 20.7694 25.2385C20.4906 25.4703 19.9484 25.1905 20.5942 24.7749C21.224 24.3592 22.8186 23.3922 22.8345 23.0725C22.8505 22.7607 22.6437 21.7218 22.2766 21.6415C21.9177 21.5618 20.9208 21.378 20.674 21.2579C20.4268 21.1459 19.4859 21.0342 19.2387 21.6735C18.9993 22.3209 18.8638 21.5775 18.8638 21.5775C18.8638 21.5775 17.963 20.7701 17.1338 21.4733C16.3125 22.1848 16.7749 21.1299 16.9583 20.9461C17.1338 20.7701 17.5484 20.3704 18.1063 20.3224C18.6645 20.2745 18.4652 19.7308 19.5256 19.7308C20.5782 19.7308 20.291 19.2512 20.3151 19.0514C20.331 18.8516 20.0998 18.308 20.5782 18.0445C21.0407 17.7807 21.1606 17.7327 21.1443 18.2283C21.1283 18.7239 21.1443 19.1474 21.3595 19.1474C21.567 19.1474 21.551 19.675 21.6071 19.7788C21.6549 19.8748 22.0454 19.7948 22.2929 19.627C22.5398 19.467 22.7551 19.467 22.9065 19.7148C23.0505 19.9626 22.9707 20.1706 22.9384 20.3224C22.9065 20.4661 22.8508 20.7139 23.0345 20.8977C23.2175 21.0815 23.3136 21.5292 23.2016 21.7371C23.0821 21.953 22.9707 22.2808 23.2016 22.4806C23.4331 22.6804 23.4331 23.2397 23.9031 23.304C24.3818 23.3758 24.5649 23.5358 24.8918 23.8875C25.2188 24.2313 25.466 23.9994 25.2029 23.6876C24.9397 23.3758 24.2858 22.9282 24.6762 22.4966C25.0755 22.0731 25.155 22.6644 25.4019 23.0082C25.649 23.3598 27.6744 26.6529 28.233 27.1165ZM21.8784 46.8195C21.8784 46.8195 21.806 47.6027 21.511 47.1313C21.2166 46.668 20.4988 46.1401 20.5704 45.4286C20.6424 44.7172 20.3076 44.6294 20.3076 44.6294C20.3076 44.6294 21.1127 44.8207 21.2006 45.7642C21.2006 45.7642 21.6869 45.6366 21.6869 46.284C21.6865 46.9233 21.8784 46.8195 21.8784 46.8195ZM24.6762 30.0262C24.6762 30.0262 25.6412 29.5943 26.2473 30.0262C26.8534 30.4578 26.4144 31.1291 26.4144 31.1291C26.4144 31.1291 25.1071 31.768 25.3777 32.504C25.6409 33.2392 27.2201 33.8145 29.4286 33.9102C31.637 34.0147 29.6282 34.6134 29.0221 34.6134C28.4238 34.6134 25.0114 35.4212 23.5045 33.5105C21.9975 31.6006 24.3095 30.2655 24.6762 30.0262Z" fill="#B8B8B8"/>
<path fill-rule="evenodd" clip-rule="evenodd" d="M5.94749 32.6C5.94749 32.6 4.9431 36.0292 4.9431 36.5326C4.9431 37.0361 4.90304 38.2673 4.90304 38.2673C4.90304 38.2673 4.35297 36.8924 4.62427 36.1173C4.90304 35.3422 4.99098 32.5523 4.99098 32.0485C4.99098 31.5451 5.30981 29.1313 5.94783 28.2602C6.58584 27.3888 6.08331 25.8383 6.36242 25.4226C6.63337 25.0148 6.68125 23.4163 6.90467 22.9609C7.13591 22.4973 6.90467 21.3144 7.59056 20.3469C8.27645 19.3877 8.82652 18.3406 8.82652 17.925C8.82652 17.5176 10.5565 14.5918 12.0638 13.6247C13.5707 12.6655 14.1608 11.9861 14.1608 11.9861C14.1608 11.9861 17.3977 8.96467 18.9525 9.01267C20.4995 9.0525 22.1338 9.97158 22.7718 9.97158C23.4098 9.97158 25.3309 10.4274 26.7421 10.1554C28.1533 9.87592 28.4725 9.87592 28.7516 9.23631C29.0229 8.59704 29.2059 6.1271 26.9737 5.62331C24.7333 5.11986 22.2299 4.66407 17.3977 5.21552C12.5663 5.75913 11.9283 5.94295 10.4693 5.53515C9.01021 5.11952 8.54775 2.97739 10.7402 2.01031C12.933 1.05107 13.9296 1.09906 14.5275 0.731433C15.1173 0.363802 16.1221 0.363802 16.4412 0.139819C16.7601 -0.0919931 16.9434 0.547618 17.4456 0.227642C17.9478 -0.091993 17.8123 0.595274 18.3546 0.363462C18.905 0.139479 18.9525 0.459114 19.2238 0.827085C19.4948 1.18689 20.2282 1.14672 21.4085 1.05073C22.5891 0.962905 23.0033 0.683096 23.6407 0.827085C23.6407 0.827085 22.5008 1.50652 21.767 1.50652C21.0414 1.50652 18.7216 1.73833 18.6738 2.05831C18.6337 2.37795 19.176 2.51376 20.0452 2.47394C20.9144 2.42594 20.7311 2.69758 20.1409 2.79357C19.5427 2.8814 16.1224 3.33719 15.3968 3.33719C14.663 3.33719 11.5137 3.06555 11.2427 3.84064C10.9718 4.61607 11.3307 4.79989 12.2475 4.89588C13.1564 4.9837 17.446 4.29644 18.3152 4.12045C19.1763 3.93663 25.6505 3.01756 28.25 4.79989C30.849 6.58222 30.6177 7.82127 30.2109 9.41979C29.7963 11.0183 29.6127 11.0663 30.3468 11.8897C31.0802 12.7128 34.859 17.9727 34.8193 21.1697C34.7714 24.3749 34.5884 25.7018 35.3218 26.661C36.0474 27.6203 35.9113 29.2188 35.7761 29.6824C35.641 30.1379 35.5446 30.8575 36.5493 31.2728C37.554 31.6802 39.5156 32.504 40.2412 32.1357C40.9746 31.7765 41.7481 31.4569 41.9311 31.8644C42.1148 32.28 40.1054 33.7825 39.4674 33.8782C38.83 33.9667 36.6369 34.2863 35.4094 34.0143C34.1813 33.7424 35.2736 34.4698 35.3615 34.5654C35.457 34.6539 36.095 35.9801 36.5014 36.1643C36.916 36.3478 37.0997 37.2594 37.0997 38.2186C37.0997 39.1772 37.3224 41.4718 37.3224 41.4718C37.3224 41.4718 37.6015 42.4712 37.9207 42.6547C38.2396 42.8388 38.2796 43.6619 38.2396 44.0296C38.1917 44.3972 38.6939 44.8533 39.0127 45.1246C39.3315 45.4044 39.7461 46.4995 39.6028 46.8671C39.467 47.2269 39.0127 47.3233 39.1003 47.7787C39.1964 48.2342 38.5584 48.4183 38.2396 48.3703C37.9207 48.3298 37.4583 47.8665 37.9207 47.8665C38.375 47.8665 38.192 46.9073 37.8253 47.0036C37.4586 47.0915 37.371 47.4111 37.0997 47.2749C36.8206 47.1394 37.0518 48.1467 36.6369 47.5946C36.2304 47.0435 36.4141 45.9484 36.6369 45.9004C36.6369 45.9004 36.2305 44.7168 35.9113 44.437C35.5924 44.1657 35.5924 42.8865 35.7283 42.1992C35.8634 41.5116 35.1381 39.4097 34.5884 39.1377C34.038 38.8586 33.3124 37.947 33.3124 37.947C33.3124 37.947 33.8628 37.2594 33.8146 36.8519C33.7667 36.4363 33.4957 36.1643 33.4 36.7164C33.3124 37.2597 32.1725 39.1377 30.4819 40.1847C30.4819 40.1847 27.9784 44.1174 29.2537 45.5808C29.2537 45.5808 29.5726 46.4518 29.1583 46.7715C28.7519 47.0911 28.704 47.7787 28.6164 48.0102C28.5203 48.2342 27.9305 48.6498 27.1567 48.6498C26.3754 48.6498 24.462 48.9218 24.0556 49.0573C23.6403 49.1934 22.9069 49.1934 22.4526 48.0102C22.4526 48.0102 23.6403 48.786 23.2339 47.7787C22.8193 46.7715 22.6363 46.4038 23.5928 46.5475C24.5496 46.6837 24.5975 46.636 24.2787 46.316C23.9598 45.996 23.2342 46.044 23.2342 46.044C23.2342 46.044 22.8196 45.7244 23.4577 45.5403C24.0957 45.3568 23.2342 44.9013 23.2342 44.9013C23.2342 44.9013 22.9558 44.757 23.2342 44.2137C23.5055 43.6619 23.3701 42.8388 23.3701 42.8388C23.3701 42.8388 23.2342 41.8796 23.5052 41.0565C23.7765 40.2327 23.6889 40.0973 23.6889 40.0973C23.6889 40.0973 23.5928 39.138 22.8193 40.2807C22.0462 41.4241 22.1334 41.8319 21.7667 42.0154C21.4078 42.1996 21.0411 42.655 21.1766 42.8872C21.3124 43.1112 20.6347 43.2068 20.6347 42.8392C20.6347 42.4716 19.5423 41.1045 20.6347 41.4245C20.6347 41.4245 20.6347 40.3294 21.129 40.6007C21.129 40.6007 21.2727 39.9618 20.9535 39.682C20.6347 39.41 20.6825 38.7227 21.129 38.1795C21.5918 37.6277 23.186 34.1025 22.5884 33.3754C21.9983 32.6401 21.8621 32.7838 21.9107 33.1912C21.9504 33.6076 21.4954 33.5596 21.2727 33.3274C21.0411 33.1034 19.9569 32.4638 19.9569 32.0482C19.9569 31.6407 19.4945 31.6407 19.4547 31.9127C19.4068 32.1847 18.8568 31.4572 18.8568 31.4572C18.8568 31.4572 18.5379 30.7696 19.1359 30.8176C19.7257 30.8575 19.9094 30.498 20.5949 30.3615C21.2727 30.226 22.5884 30.6733 23.0505 31.0896C23.0505 31.0896 24.095 29.083 25.9207 29.3549C27.7465 29.6348 27.1564 30.5378 27.0606 30.77C26.973 30.9933 26.1917 32.4642 28.2969 32.2807C30.394 32.0965 29.0225 31.6809 28.7512 31.6809C28.4721 31.6809 27.1968 31.865 27.4277 31.2734C27.6511 30.6737 27.6511 30.2264 28.337 30.322C29.0229 30.4024 29.7084 29.9064 30.0751 30.8578C30.0751 30.8578 30.3464 30.0905 31.0798 30.4024C31.8055 30.7216 32.1722 30.4503 32.7138 30.818C33.2642 31.1778 33.95 31.0413 33.95 31.0413C33.95 31.0413 34.4998 31.2254 34.4522 31.8171C34.4044 32.4162 34.1334 32.8236 33.6791 32.7358C33.217 32.6401 32.8581 33.3754 33.7667 33.3754C34.676 33.3754 34.7235 32.8236 36.095 33.2797C37.4586 33.743 39.2844 33.8309 39.8348 33.3754C40.3845 32.9199 41.4289 32.4162 41.4289 32.4162C41.4289 32.4162 41.7478 31.6809 41.0622 32.0965C40.3845 32.5047 39.3319 32.7361 37.737 32.2807C36.1428 31.8174 35.4967 31.3133 35.2733 31.3133C35.0424 31.3133 34.8587 31.2254 34.8587 30.818C34.8587 30.4024 34.1809 29.7706 33.95 29.6348C33.7185 29.4989 32.9453 29.1313 32.491 29.1313C32.036 29.1313 29.8435 28.1241 29.4768 27.6683C29.1179 27.2128 28.2008 26.3417 27.8827 24.6949C27.5638 23.0484 26.8779 22.5446 26.5112 22.1371C26.1523 21.7215 25.3707 21.17 25.3707 19.5232C25.3707 17.8848 24.5975 17.0614 24.2783 16.7418C23.9595 16.414 22.5005 13.6724 22.365 13.3524C22.2299 13.0328 22.0937 11.8897 22.9069 12.7611C23.7286 13.6244 24.0556 13.992 23.9595 14.4958C23.9595 14.4958 24.3748 14.7756 24.1911 15.2311C24.1911 15.2311 24.9167 15.8224 24.7812 16.2782C24.7812 16.2782 25.5544 17.1492 25.6022 17.4209C25.6501 17.7007 26.1527 17.7885 26.2881 17.4689C26.4233 17.1492 27.428 17.1492 27.0613 16.8296C26.6946 16.51 26.8304 16.0943 27.1092 16.462C27.3805 16.8296 27.7472 17.653 28.1536 17.3334C28.5682 17.0138 28.7519 16.51 28.3852 16.51C28.0185 16.51 27.9309 16.2383 27.9309 15.9585C27.9309 15.6869 27.4283 15.2709 27.8348 14.8158C28.25 14.36 27.612 13.7207 27.5642 13.2649C27.5163 12.8091 27.2929 12.6253 27.0616 12.5293C26.8307 12.4415 26.8786 12.0259 27.4283 11.7063C27.9787 11.3866 28.0664 11.115 28.6565 11.3386C29.2541 11.5704 29.6612 11.3386 29.4378 11.1626C29.2062 10.9788 29.2541 10.843 29.4378 10.5152C29.613 10.1956 30.6653 7.40599 29.2062 5.90312C27.7472 4.39243 23.9599 3.93698 21.8149 4.07279C19.6785 4.20861 14.9822 5.0317 14.5279 5.0317C14.0732 5.0317 11.9684 5.26351 11.514 5.0317C11.0594 4.79989 10.6927 5.16752 11.2427 5.35133C11.7928 5.53515 14.6634 5.26351 15.301 5.16752C15.939 5.0797 22.9555 4.12045 25.1004 4.71172C27.245 5.30334 29.1583 5.71897 29.3899 7.45364C29.6127 9.19615 28.3852 10.5628 28.3852 10.5628C28.3852 10.5628 28.0663 10.9305 27.4283 10.8825C26.7903 10.8427 22.8675 10.475 21.8628 10.1551C20.8666 9.83542 18.4028 8.916 16.8558 10.379C15.301 11.8417 12.5184 13.6721 12.1116 13.992C11.6971 14.3117 10.3338 15.9184 9.96706 16.9174C9.60035 17.9243 9.23364 18.1085 9.18576 18.7079C9.14569 19.2995 7.82247 19.851 7.68665 21.3137C7.55083 22.7764 7.36782 23.6396 7.18446 24.0076C7.0011 24.3752 6.63439 25.2467 7.00111 25.2865C7.36782 25.3345 7.36782 25.8379 7.04898 25.8379C6.73015 25.8379 6.49891 26.0697 6.81775 26.8448C7.13659 27.6203 6.0446 28.3957 5.99672 29.2188C5.54105 30.4977 6.22694 31.4967 5.94749 32.6Z" fill="#B8B8B8"/>
<path fill-rule="evenodd" clip-rule="evenodd" d="M11.2339 25.3658C11.2339 25.3658 10.8193 26.9007 11.1782 27.6519C11.5449 28.4114 11.6726 29.5306 12.1429 29.8182C12.6135 30.1062 12.6135 30.2097 12.8685 29.97C13.1316 29.7382 13.1795 29.97 13.3866 30.1539C13.5937 30.3373 13.9367 30.3612 13.9605 30.5613C13.9846 30.7693 13.9367 30.9051 13.6494 30.9051C13.3622 30.9051 13.0753 31.1373 12.9717 30.9531C12.8681 30.7696 12.533 30.4098 12.2461 30.721C11.9588 31.0328 11.9113 31.6884 11.3612 31.4004C10.819 31.1131 10.0135 31.1373 10.7874 30.6171C10.7874 30.6171 10.1416 30.05 9.98196 29.9455C9.83053 29.8417 9.56738 29.8659 9.62306 29.1943C9.67094 28.5148 9.28012 27.9392 10.1412 27.3159C10.9945 26.6923 10.476 26.7965 10.476 26.5643C10.4763 26.3254 10.8672 24.8144 11.2339 25.3658Z" fill="#B8B8B8"/>
<path fill-rule="evenodd" clip-rule="evenodd" d="M10.5561 41.6396C10.5561 41.6396 9.96627 40.6004 9.42402 40.7845C8.88176 40.9609 9.06511 41.192 8.88176 41.416C8.70621 41.6393 7.70964 43.8621 7.70964 44.2695C7.70964 44.677 7.35073 47.5786 7.43868 48.1702C7.52628 48.7618 6.93648 49.9845 6.35416 50.392C5.76402 50.7994 4.76745 52.2461 4.59224 53.5652C4.40889 54.8764 4.49649 55.196 4.54437 56.0589C4.59224 56.9225 4.59224 58.729 4.13793 59.1845C3.68361 59.6399 2.78245 59.9119 1.83375 59.9119C0.885052 59.9119 -0.701658 59.5521 0.478273 58.0496C1.65039 56.5549 2.91827 54.7406 2.55122 53.7892C2.19231 52.8377 3.22896 52.6621 3.41231 52.3425L3.59601 52.0228L3.86697 50.3041C3.86697 50.3041 3.86697 49.5291 4.40922 49.5291C4.95148 49.5291 5.71683 48.7135 5.71683 48.1702C5.71683 47.6262 5.7647 47.1309 5.54128 47.1309C5.31005 47.1309 5.17457 46.6275 5.17457 46.6275C5.17457 46.6275 4.95114 46.2194 4.63231 46.763C4.32128 47.3062 4.1858 47.0826 4.40889 46.5866C4.63231 46.0832 4.63231 45.7714 4.63231 45.7714C4.63231 45.7714 4.86354 45.5392 5.08662 45.3558C5.31005 45.1794 5.08662 43.9091 5.03875 43.6851C4.99902 43.4536 4.54437 43.1816 4.63231 43.9571C4.72806 44.7243 4.81567 45.1318 4.81567 45.1318C4.81567 45.1318 4.32128 45.4038 4.36101 44.9085C4.40889 44.4047 4.36101 43.4539 4.40889 43.1421C4.45676 42.8225 4.00211 42.0471 4.27341 41.5511C4.54437 41.0558 4.49649 40.1922 4.49649 40.1922C4.49649 40.1922 4.95081 39.6013 4.8632 40.1922C4.76745 40.7839 4.49649 41.9586 4.63197 42.1907C4.76745 42.4147 5.08629 42.5025 5.17423 42.2306C5.26998 41.9586 4.81533 41.5511 5.17423 41.2311C5.54094 40.9193 5.26998 40.0564 5.26998 40.0564C5.26998 40.0564 5.44519 39.153 5.67642 38.8817C5.89984 38.6019 5.89984 36.6592 5.8119 36.3873C5.71615 36.116 5.71615 36.068 6.08286 35.7085C6.44176 35.3409 6.21834 34.6128 6.66485 34.2053C7.1195 33.7978 6.98368 33.8942 6.93614 34.3415C6.89608 34.7969 6.89608 36.5632 7.79724 35.9795C8.70621 35.3885 9.51943 35.4362 9.5595 34.4371C9.60737 33.4377 9.79073 32.0312 10.1972 31.3517C10.1972 31.3517 10.4203 32.6228 10.7873 32.7586C11.1459 32.8948 11.9672 32.6149 12.5492 33.1661C13.1231 33.71 14.3431 33.0306 14.2235 32.8063C14.0962 32.5748 13.7692 31.4879 14.4945 32.0788C15.2123 32.6704 15.5311 32.9424 15.8021 32.9424C16.0731 32.9424 16.432 32.6704 16.1209 32.5748C15.8021 32.4863 15.9376 32.0788 15.9855 31.7592C16.0252 31.4395 16.4798 31.3994 16.799 31.1281C17.11 30.8561 17.4289 30.8959 17.4767 30.6243C17.5246 30.3605 18.019 29.6814 18.0669 30.401C18.1066 31.1284 18.29 31.7115 18.5613 31.9433C18.8322 32.1673 19.0156 32.3988 18.7446 32.7106C18.4737 33.0302 19.0556 33.438 19.0556 34.0695C19.0556 34.7091 19.1911 34.7091 18.6967 34.6128C18.2024 34.5249 17.8356 34.7969 18.2024 35.2524C18.5613 35.7085 18.5134 36.116 18.1545 36.2916C17.7956 36.4758 17.7002 36.7954 17.5246 37.515C17.3413 38.2424 17.0224 39.1932 17.1576 39.5615C17.2934 39.9213 17.6998 40.552 18.019 40.552C18.3378 40.552 18.4254 40.9197 18.5134 41.4156C18.6091 41.9109 19.3266 42.1431 19.4224 42.686C19.51 43.23 20.3235 43.8614 19.8291 43.8216C19.3269 43.7729 19.239 44.1814 19.239 44.6767C19.239 45.1801 19.4624 46.0835 19.4624 46.0835C19.4624 46.0835 19.6458 46.7231 19.3745 47.2184C19.1035 47.7144 18.8801 48.6253 18.968 49.1689C19.0556 49.7122 18.0672 50.6156 17.7005 50.6156C17.3416 50.6156 17.1582 50.2558 17.836 50.1196C18.5137 49.9842 18.5137 49.3524 17.9314 49.3044C17.3416 49.2564 16.8391 49.1209 16.8391 49.7118C16.8391 50.3035 16.8391 50.7113 16.1613 50.5754C15.4836 50.4393 15.5634 50.1918 15.5794 49.8004C15.5872 49.416 15.9542 48.5531 16.0737 48.305C16.2014 48.0575 16.4326 47.4421 16.6639 47.2181C16.887 46.9948 17.6126 45.5879 17.6126 45.5879C17.6126 45.5879 18.2903 44.0449 17.6604 44.5885C17.0228 45.1318 15.8506 46.1309 15.7549 46.6268C15.6673 47.1303 15.0371 48.8486 15.0371 49.4399C15.0371 50.0315 14.447 50.3035 14.447 51.2947C14.447 52.2941 14.1281 54.6037 14.4948 55.1953C14.8537 55.787 14.2636 56.4657 13.9926 56.5542C13.7213 56.6499 12.5017 57.6013 11.9115 57.553C11.3296 57.505 11.0583 57.3296 11.1462 56.9218C11.2341 56.5141 10.8752 56.2822 10.7398 56.6897C10.6043 57.0972 9.96627 57.0972 10.1021 56.3299C10.2376 55.5548 10.8752 53.4287 11.7764 52.4293C12.6854 51.4298 11.9598 51.2545 12.773 51.2944C12.773 51.2944 13.2674 50.3031 12.8209 50.1673C12.3665 50.0311 12.4144 49.7112 12.4144 49.3037C12.4144 48.8963 11.9598 48.3523 12.2789 47.6249C12.59 46.8974 13.4511 45.5872 13.1798 44.8111C12.9088 44.0439 12.0956 43.8604 12.0956 43.8604C11.6012 43.8604 11.0114 43.5006 11.0114 42.909C11.0104 42.3272 10.2372 42.1914 10.5561 41.6396Z" fill="#B8B8B8"/>
<path fill-rule="evenodd" clip-rule="evenodd" d="M16.7991 48.6178C16.7991 48.6178 16.2409 48.29 16.7591 47.8026C17.2772 47.3233 17.9071 46.06 17.9471 45.8919C17.9872 45.7244 18.4096 45.3326 18.4096 45.8759C18.4096 46.4117 18.3536 47.7467 18.4096 48.0419C18.4096 48.0419 17.9631 48.1222 17.7954 48.418C17.6364 48.7138 17.0623 48.882 16.7991 48.6178ZM15.9699 49.3851C15.9859 49.2972 16.0976 49.2254 16.1852 49.2336C16.265 49.2414 16.3526 49.3452 16.3367 49.4171C16.3047 49.5454 16.2012 49.7129 16.0735 49.6969C15.9699 49.689 15.938 49.4896 15.9699 49.3851ZM12.3979 56.3871C12.5412 56.3871 12.661 56.5076 12.661 56.6509C12.661 56.7942 12.5412 56.9147 12.3979 56.9147C12.2543 56.9147 12.1426 56.7942 12.1426 56.6509C12.1426 56.5076 12.2546 56.3871 12.3979 56.3871ZM10.9708 55.2764C11.1304 55.2764 11.2577 55.3482 11.2577 55.4438C11.2577 55.5323 11.1304 55.6042 10.9708 55.6042C10.803 55.6042 10.6757 55.5323 10.6757 55.4438C10.6757 55.3482 10.8034 55.2764 10.9708 55.2764ZM12.8604 47.5707C12.8604 47.5707 13.7055 46.5237 13.9286 47.4431C14.1598 48.354 13.6417 49.5931 13.4423 49.7289C13.2512 49.8572 12.8604 50.0485 12.8604 49.4657C12.8604 48.8738 12.7568 47.9622 12.8604 47.5707ZM12.1748 52.6301C12.1748 52.6301 12.693 51.8788 13.0199 52.5661C13.3469 53.2537 13.6739 53.4457 13.6739 53.8773C13.6739 54.3008 13.9289 55.02 13.4108 55.052C12.8926 55.084 12.3344 55.6358 11.9755 55.5718C11.6166 55.5078 11.2896 54.8206 11.2896 54.8206C11.2896 54.8206 10.8988 54.6286 11.457 54.0366C12.0074 53.446 11.457 53.0226 12.1748 52.6301ZM4.32105 47.6187C4.32105 47.6187 4.20934 48.5382 4.32105 48.8421C4.43277 49.1539 3.8029 49.5536 3.74688 49.0018C3.69119 48.4425 3.93838 47.9622 4.32105 47.6187ZM1.95304 59.1372C2.09633 59.1372 2.20804 59.225 2.20804 59.3285C2.20804 59.4248 2.09633 59.5126 1.95304 59.5126C1.81756 59.5126 1.69804 59.4248 1.69804 59.3285C1.69804 59.2247 1.81756 59.1372 1.95304 59.1372ZM1.13202 58.8094C1.13202 58.8094 0.805029 59.2727 0.605714 59.1133C0.406399 58.9612 0.207084 58.6341 0.581946 58.3461C0.956807 58.0581 2.33605 55.932 2.44777 55.756C2.55948 55.5803 3.50037 55.3802 3.58797 56.1236C3.67557 56.8756 3.38865 57.4267 2.68681 57.4665C1.98496 57.5141 1.33133 57.6186 1.13202 58.8094ZM27.1479 37.9153C27.1319 37.8115 27.2918 37.6832 27.3794 37.7233C27.5312 37.7792 27.627 37.9473 27.6507 38.0991C27.6586 38.1716 27.5156 38.2036 27.4433 38.1795C27.3238 38.1308 27.1645 38.043 27.1479 37.9153ZM25.5934 39.4737C25.4423 39.4897 25.4342 39.1139 25.5455 39.0022C25.6651 38.8667 26.0555 38.7782 26.0793 38.9542C26.1034 39.1864 25.8328 39.4498 25.5934 39.4737ZM25.1473 37.9871C25.0114 37.9313 24.9955 37.6515 25.0994 37.5477C25.2267 37.4272 25.4661 37.4759 25.6172 37.5477C25.7048 37.5875 25.7523 37.755 25.681 37.8197C25.5459 37.9473 25.3221 38.0668 25.1473 37.9871ZM30.7923 32.4236C30.5131 32.3998 30.5131 32.0638 30.7923 32.072C31.326 32.088 31.9403 32.1524 32.4343 32.3998C32.8655 32.6238 32.5701 33.2396 32.2513 32.9036C31.8367 32.4723 31.2781 32.4795 30.7923 32.4236ZM35.6074 37.1481C35.6074 37.1481 36.0067 37.4272 36.2135 37.4272C36.4131 37.4272 36.5405 37.9071 36.2135 37.9071C35.8787 37.9071 35.3049 37.6273 35.3049 37.4755C35.3052 37.3237 35.3527 36.6681 35.6074 37.1481ZM34.0214 35.2534C34.0214 35.2534 33.6944 35.6857 33.6944 35.2534C33.6944 34.8299 33.766 33.9908 34.1168 33.9908C34.4757 33.9908 34.5232 34.0705 34.8027 34.6223C35.074 35.1816 35.4566 35.7572 35.9833 36.0125C36.5092 36.2685 35.552 36.7723 35.3772 36.4448C35.2013 36.117 34.5714 35.3092 34.4441 35.1816C34.3242 35.0539 34.0451 34.8538 34.0214 35.2534Z" fill="white"/>
</g>
<defs>
<clipPath id="clip0_46_72">
<rect width="42" height="60" fill="white"/>
</clipPath>
</defs>
</svg>
