<svg width="60" height="60" viewBox="0 0 60 60" fill="none" xmlns="http://www.w3.org/2000/svg">
<path fill-rule="evenodd" clip-rule="evenodd" d="M30.0085 34.591L5.33348 44.8039C10.5325 53.5396 19.9537 58.87 30.1137 58.8175C40.2477 58.7912 49.6427 53.4072 54.7887 44.6458L30.0085 34.591ZM25.7344 27.378L29.6665 1.33096C19.5324 1.46273 10.1904 6.92559 5.12354 15.7136C0.030402 24.5015 -0.0225149 35.3214 4.96548 44.1623L25.7344 27.378ZM34.1516 27.7236L55.1578 43.9797C60.0403 35.1392 59.9345 24.3981 54.8417 15.6631C52.3518 11.3682 48.7923 7.79106 44.5099 5.27987C40.2274 2.76867 35.3677 1.40895 30.4039 1.33303L34.1516 27.7236Z" fill="#B8B8B8"/>
</svg>
