<svg width="72" height="60" viewBox="0 0 72 60" fill="none" xmlns="http://www.w3.org/2000/svg">
<g clip-path="url(#clip0_46_17)">
<path d="M41.9571 32.3968C41.9 32.4111 41.6714 32.4111 41.5714 32.4111H34.2V34.1183H41.7C41.7571 34.1183 42.2 34.1183 42.2857 34.104C43.8143 33.9618 44.5143 32.6956 44.5143 31.5859C44.5143 30.4478 43.7857 29.2243 42.4 29.0963C42.1286 29.0678 41.9 29.0678 41.8 29.0678H36.9C36.6857 29.0678 36.4429 29.0536 36.3571 29.0252C35.9714 28.9256 35.8286 28.5841 35.8286 28.2996C35.8286 28.0435 35.9714 27.7021 36.3714 27.5883C36.4857 27.5598 36.6143 27.5456 36.8857 27.5456H43.9571V25.8669H36.7714C36.4714 25.8669 36.2429 25.8811 36.0571 25.9095C34.8286 26.0803 33.9714 27.0619 33.9714 28.3138C33.9714 29.3381 34.6143 30.5332 36.0286 30.7323C36.2857 30.7608 36.6429 30.7608 36.8 30.7608H41.5714C41.6571 30.7608 41.8714 30.7608 41.9143 30.775C42.4571 30.8462 42.6429 31.2445 42.6429 31.6002C42.6429 31.9416 42.4286 32.3115 41.9571 32.3968ZM27.9857 32.3968C27.9286 32.4111 27.7 32.4111 27.6143 32.4111H20.2286V34.1183H27.7286C27.7857 34.1183 28.2286 34.1183 28.3143 34.104C29.8429 33.9618 30.5429 32.6956 30.5429 31.5859C30.5429 30.4478 29.8143 29.2243 28.4286 29.0963C28.1571 29.0678 27.9286 29.0678 27.8286 29.0678H22.9286C22.7143 29.0678 22.4714 29.0536 22.3857 29.0252C22 28.9256 21.8571 28.5841 21.8571 28.2996C21.8571 28.0435 22 27.7021 22.4 27.5883C22.5143 27.5598 22.6429 27.5456 22.9143 27.5456H29.9857V25.8669H22.8C22.5 25.8669 22.2714 25.8811 22.0857 25.9095C20.8571 26.0803 20 27.0619 20 28.3138C20 29.3381 20.6429 30.5332 22.0571 30.7323C22.3143 30.7608 22.6714 30.7608 22.8286 30.7608H27.6C27.6857 30.7608 27.9 30.7608 27.9429 30.775C28.4857 30.8462 28.6714 31.2445 28.6714 31.6002C28.6714 31.9416 28.4714 32.3115 27.9857 32.3968ZM14.5286 25.81H16.3857V34.1609H14.5286V25.81ZM2.38571 25.81H0V34.1609H1.85714V27.9013L8.08571 34.1609H10.4286V25.81H8.57143V32.0412L2.38571 25.81ZM61.5857 34.1609H63.4429V27.9013L69.6571 34.1609H72V25.81H70.1571V32.0412L63.9714 25.81H61.5857V34.1609ZM51.9143 25.81L46.6857 34.1609H48.9429L49.8714 32.6672H55.9714L56.9 34.1609H59.1429L53.9143 25.81H51.9143ZM55.0143 31.088H50.8286L52.9286 27.7305L55.0143 31.088ZM10.3286 21.0725C14.0714 10.1892 24.3857 2.87679 36.0143 2.87679C47.6429 2.87679 57.9714 10.1892 61.7 21.0725L61.7286 21.1579H69.9143V20.1763L66.5143 19.7779C64.4143 19.5361 63.9714 18.6113 63.4 17.4448L63.2571 17.1602C58.3429 6.74641 47.6429 0.00302887 36.0143 0.00302887C24.3714 0.00302887 13.6857 6.74641 8.77143 17.1887L8.62857 17.4732C8.05714 18.6398 7.61429 19.5645 5.51429 19.8064L2.11429 20.2047V21.1863H10.2857L10.3286 21.0725ZM61.7286 38.8272L61.7 38.9126C57.9571 49.7959 47.6429 57.0941 36.0143 57.0941C24.3857 57.0941 14.0571 49.7817 10.3286 38.8984L10.3 38.813H2.12857V39.7946L5.52857 40.193C7.62857 40.4348 8.07143 41.3596 8.64286 42.5261L8.78571 42.8107C13.7 53.2529 24.4 59.9963 36.0286 59.9963C47.6571 59.9963 58.3571 53.2529 63.2714 42.8249L63.4143 42.5404C63.9857 41.3738 64.4286 40.4491 66.5286 40.2072L69.9286 39.8089V38.8272H61.7286Z" fill="#B8B8B8"/>
</g>
<defs>
<clipPath id="clip0_46_17">
<rect width="72" height="60" fill="white"/>
</clipPath>
</defs>
</svg>
