<svg width="64" height="64" viewBox="0 0 64 64" fill="none" xmlns="http://www.w3.org/2000/svg">
<g clip-path="url(#clip0_46_129)">
<path d="M56 0H8C3.58172 0 0 3.58172 0 8V56C0 60.4183 3.58172 64 8 64H56C60.4183 64 64 60.4183 64 56V8C64 3.58172 60.4183 0 56 0Z" fill="#0F172A"/>
<path d="M43.7711 40.0863C41.7835 42.241 38.7759 43.3333 34.8333 43.3333H33.4167V39.3397L34.5557 39.1116C36.4965 38.7234 37.8466 37.9598 38.5691 36.8393C38.9461 36.2356 39.1599 35.5444 39.1896 34.8333H34.8333C34.4576 34.8333 34.0973 34.684 33.8316 34.4183C33.5659 34.1526 33.4167 33.7923 33.4167 33.4166V23.4999C33.4167 21.9373 34.6874 20.6666 36.25 20.6666H44.75C45.1257 20.6666 45.4861 20.8158 45.7517 21.0815C46.0174 21.3472 46.1667 21.7075 46.1667 22.0833V29.1666L46.1624 33.3018C46.1752 33.4591 46.4443 37.1849 43.7711 40.0863ZM20.6667 20.6666H29.1667C29.5424 20.6666 29.9027 20.8158 30.1684 21.0815C30.4341 21.3472 30.5833 21.7075 30.5833 22.0833V29.1666L30.5791 33.3018C30.5918 33.4591 30.861 37.1849 28.1877 40.0863C26.2002 42.241 23.1926 43.3333 19.25 43.3333H17.8333V39.3397L18.9723 39.1116C20.9132 38.7234 22.2632 37.9598 22.9857 36.8393C23.3627 36.2356 23.5765 35.5444 23.6063 34.8333H19.25C18.8743 34.8333 18.5139 34.684 18.2483 34.4183C17.9826 34.1526 17.8333 33.7923 17.8333 33.4166V23.4999C17.8333 21.9373 19.1041 20.6666 20.6667 20.6666Z" fill="white"/>
</g>
<defs>
<clipPath id="clip0_46_129">
<rect width="64" height="64" fill="white"/>
</clipPath>
</defs>
</svg>
