<svg width="46" height="60" viewBox="0 0 46 60" fill="none" xmlns="http://www.w3.org/2000/svg">
<g clip-path="url(#clip0_46_50)">
<path d="M6.70213 56.3453V59.9928H5.54227V57.5643H1.32093V59.9928H0.161893V56.3516L6.70213 56.3453ZM5.67151 55.1654H1.21166C0.592196 55.0412 0.131521 54.4899 0.00162087 53.9565H6.88138C6.7528 54.49 6.28536 55.0412 5.67151 55.1654ZM10.2149 59.9952C9.63009 59.7451 9.31549 59.3127 9.195 58.8066H14.3971L14.3938 53.9595L15.5599 53.9628V59.9952H10.2149ZM24.2317 55.1491H20.1129C19.4919 54.9671 18.9705 54.49 18.8434 53.9612H25.3863V57.526H20.0312V58.777L24.2317 58.7803C24.89 58.9654 25.4482 59.4112 25.7267 60L25.3863 59.9937H18.8806V56.3408H24.2317V55.1491ZM34.3998 55.1605H29.9414C29.3211 55.0359 28.8601 54.485 28.7309 53.9512H35.6103C35.4819 54.485 35.0141 55.0359 34.3998 55.1605ZM34.3998 57.5446H29.9414C29.3211 57.4213 28.8601 56.87 28.7309 56.3358H35.6103C35.4819 56.8701 35.0141 57.4213 34.3998 57.5446ZM34.3998 59.9945H29.9414C29.3211 59.8701 28.8601 59.319 28.7309 58.7855H35.6103C35.4819 59.3192 35.0141 59.8701 34.3998 59.9945ZM45.9985 53.9658C45.8645 54.493 45.4119 55.0319 44.791 55.1669H42.9143L42.8185 55.205V59.981H41.6466V55.205L41.5402 55.1669H39.6618C39.0339 55.0037 38.5911 54.493 38.4594 53.9658V53.9542H45.9985V53.9658Z" fill="#B8B8B8"/>
<path d="M22.9979 42.0325L17.1423 8.81977C11.5609 8.81977 9.80036 9.43702 9.54617 11.9565C9.54617 11.9565 5.802 10.5485 3.91358 7.68898C11.2827 4.24517 18.6871 4.08986 18.6871 4.08986L23.0076 9.39707L22.9979 9.3964L27.3184 4.08903C27.3184 4.08903 34.7229 4.24451 42.0911 7.68832C40.2043 10.5478 36.4586 11.9558 36.4586 11.9558C36.203 9.43619 34.4446 8.81894 28.9007 8.81494L22.9979 42.0325Z" fill="#B8B8B8"/>
<path d="M23 2.55689C17.0431 2.51094 10.2247 3.48626 3.24476 6.55436C2.31185 4.86092 2.07203 4.1125 2.07203 4.1125C9.70214 1.06803 16.8476 0.0261349 23.0008 0C29.1537 0.0261349 36.2989 1.0682 43.928 4.1125C43.928 4.1125 43.5876 5.03438 42.7561 6.55436C35.7774 3.48626 28.9579 2.51094 23.0008 2.55689H23Z" fill="#B8B8B8"/>
</g>
<defs>
<clipPath id="clip0_46_50">
<rect width="46" height="60" fill="white" transform="matrix(-1 0 0 1 46 0)"/>
</clipPath>
</defs>
</svg>
