<svg width="46" height="60" viewBox="0 0 46 60" fill="none" xmlns="http://www.w3.org/2000/svg">
<g clip-path="url(#clip0_64_2)">
<path d="M39.2979 56.3453V59.9928H40.4577V57.5643H44.6791V59.9928H45.8381V56.3516L39.2979 56.3453ZM40.3285 55.1654H44.7883C45.4078 55.0412 45.8685 54.4899 45.9984 53.9565H39.1186C39.2472 54.49 39.7146 55.0412 40.3285 55.1654ZM35.7851 59.9952C36.3699 59.7451 36.6845 59.3127 36.805 58.8066H31.6029L31.6062 53.9595L30.4401 53.9629V59.9952H35.7851ZM21.7683 55.1491H25.8871C26.5081 54.9671 27.0295 54.49 27.1566 53.9612H20.6137V57.526H25.9688V58.777L21.7683 58.7803C21.11 58.9654 20.5518 59.4112 20.2733 60L20.6137 59.9937H27.1194V56.3408H21.7683V55.1491ZM11.6002 55.1606H16.0586C16.6789 55.0359 17.1399 54.4851 17.2691 53.9512H10.3897C10.5181 54.4851 10.9859 55.0359 11.6002 55.1606ZM11.6002 57.5447H16.0586C16.6789 57.4213 17.1399 56.87 17.2691 56.3358H10.3897C10.5181 56.8701 10.9859 57.4213 11.6002 57.5447ZM11.6002 59.9945H16.0586C16.6789 59.8702 17.1399 59.319 17.2691 58.7855H10.3897C10.5181 59.3192 10.9859 59.8702 11.6002 59.9945ZM0.00146484 53.9658C0.135492 54.493 0.588079 55.0319 1.20903 55.1669H3.08573L3.18146 55.205V59.981H4.35337V55.205L4.45983 55.1669H6.33819C6.96607 55.0038 7.40892 54.493 7.54063 53.9658V53.9542H0.00146484V53.9658Z" fill="#B8B8B8"/>
<path d="M23.0024 42.0325L28.858 8.81977C34.4394 8.81977 36.1999 9.43702 36.4541 11.9565C36.4541 11.9565 40.1982 10.5485 42.0867 7.68898C34.7175 4.24517 27.3132 4.08986 27.3132 4.08986L22.9926 9.39707L23.0024 9.3964L18.6818 4.08903C18.6818 4.08903 11.2773 4.24451 3.90918 7.68832C5.79595 10.5478 9.5416 11.9558 9.5416 11.9558C9.79728 9.43619 11.5556 8.81894 17.0996 8.81494L23.0024 42.0325Z" fill="#B8B8B8"/>
<path d="M23 2.55689C28.9569 2.51094 35.7753 3.48626 42.7552 6.55436C43.6881 4.86092 43.928 4.1125 43.928 4.1125C36.2979 1.06803 29.1524 0.0261349 22.9992 0C16.8463 0.0261349 9.70115 1.0682 2.07202 4.1125C2.07202 4.1125 2.41237 5.03438 3.24393 6.55436C10.2226 3.48626 17.0421 2.51094 22.9992 2.55689H23Z" fill="#B8B8B8"/>
</g>
<defs>
<clipPath id="clip0_64_2">
<rect width="46" height="60" fill="white"/>
</clipPath>
</defs>
</svg>
