<svg width="60" height="60" viewBox="0 0 60 60" fill="none" xmlns="http://www.w3.org/2000/svg">
<g clip-path="url(#clip0_46_19)">
<path fill-rule="evenodd" clip-rule="evenodd" d="M29.989 0.891853C13.9066 0.891853 0.869629 13.9295 0.869629 30.0112C0.869629 46.0933 13.9069 59.1306 29.989 59.1306C46.0704 59.1306 59.1083 46.0933 59.1083 30.0112C59.1083 13.9298 46.0704 0.891853 29.989 0.891853ZM29.989 56.5197C15.3485 56.5197 3.48045 44.6517 3.48045 30.0112C3.48045 15.3714 15.3485 3.50299 29.989 3.50299C44.6288 3.50299 56.4975 15.3714 56.4975 30.0112C56.4975 44.6517 44.6288 56.5197 29.989 56.5197Z" fill="#B8B8B8"/>
<path fill-rule="evenodd" clip-rule="evenodd" d="M24.1851 10.2061C26.0704 9.65565 28.0247 9.37714 29.9888 9.37896C32.0013 9.37896 33.9469 9.66722 35.786 10.2045L29.9888 23.0547L24.1851 10.2061Z" fill="#B8B8B8"/>
<path fill-rule="evenodd" clip-rule="evenodd" d="M41.064 12.6002C43.2367 13.9863 45.1323 15.7647 46.6539 17.8446L37.1389 38.9005L33.4672 30.7362H26.5104L22.839 38.9002L13.3377 17.825C14.8565 15.7533 16.7469 13.9818 18.9127 12.6006L26.5104 29.4559H33.4909L41.064 12.6002ZM10.0536 24.6713C9.58911 26.4132 9.35458 28.2084 9.35596 30.0112C9.35596 38.0971 14.0064 45.0959 20.7786 48.48L10.0536 24.6713Z" fill="#B8B8B8"/>
<path fill-rule="evenodd" clip-rule="evenodd" d="M24.281 49.8444C26.1368 50.3767 28.0582 50.6459 29.9889 50.6441C31.9668 50.6441 33.8794 50.3655 35.6899 49.8465L29.9889 37.1853L24.281 49.8444ZM39.1982 48.48C45.9707 45.0959 50.6211 38.0971 50.6211 30.0112C50.6211 28.1808 50.3827 26.4061 49.936 24.7164L39.1982 48.48Z" fill="#B8B8B8"/>
</g>
<defs>
<clipPath id="clip0_46_19">
<rect width="60" height="60" fill="white"/>
</clipPath>
</defs>
</svg>
